/* XPM */
static char * PA_xpm[] = {
"40 40 214 2",
"  	c #000000",
". 	c #000100",
"+ 	c #010100",
"@ 	c #000301",
"# 	c #000503",
"$ 	c #000703",
"% 	c #000704",
"& 	c #000302",
"* 	c #000101",
"= 	c #010101",
"- 	c #010804",
"; 	c #000D07",
"> 	c #00130A",
", 	c #00170C",
"' 	c #00180C",
") 	c #00150B",
"! 	c #011008",
"~ 	c #000A05",
"{ 	c #000402",
"] 	c #000201",
"^ 	c #000200",
"/ 	c #000401",
"( 	c #000C05",
"_ 	c #001209",
": 	c #00190C",
"< 	c #012212",
"[ 	c #002B16",
"} 	c #00311A",
"| 	c #00331A",
"1 	c #012D17",
"2 	c #002212",
"3 	c #010302",
"4 	c #010401",
"5 	c #000B05",
"6 	c #001008",
"7 	c #01160C",
"8 	c #012010",
"9 	c #002915",
"0 	c #01341B",
"a 	c #004222",
"b 	c #006534",
"c 	c #008947",
"d 	c #00B35D",
"e 	c #00AA58",
"f 	c #006434",
"g 	c #012111",
"h 	c #000603",
"i 	c #000904",
"j 	c #010E07",
"k 	c #01150B",
"l 	c #011D0E",
"m 	c #012715",
"n 	c #013119",
"o 	c #003E20",
"p 	c #01512A",
"q 	c #008445",
"r 	c #00A757",
"s 	c #00BA61",
"t 	c #00B25D",
"u 	c #012C17",
"v 	c #00150A",
"w 	c #010603",
"x 	c #000502",
"y 	c #000804",
"z 	c #010C06",
"A 	c #011B0D",
"B 	c #002412",
"C 	c #002E18",
"D 	c #003B1E",
"E 	c #014D28",
"F 	c #017B40",
"G 	c #00A053",
"H 	c #00AC59",
"I 	c #003019",
"J 	c #00160B",
"K 	c #010201",
"L 	c #000B06",
"M 	c #001108",
"N 	c #002111",
"O 	c #01371D",
"P 	c #004423",
"Q 	c #016735",
"R 	c #00934D",
"S 	c #00793F",
"T 	c #002C17",
"U 	c #011409",
"V 	c #000905",
"W 	c #000E07",
"X 	c #001E0F",
"Y 	c #002815",
"Z 	c #01331A",
"` 	c #014021",
" .	c #005E30",
"..	c #00AD5A",
"+.	c #002313",
"@.	c #000E06",
"#.	c #000403",
"$.	c #010502",
"%.	c #003C1E",
"&.	c #004F29",
"*.	c #007D41",
"=.	c #00B860",
"-.	c #00753D",
";.	c #00321A",
">.	c #012815",
",.	c #016635",
"'.	c #009F53",
").	c #00B55F",
"!.	c #00994F",
"~.	c #00904B",
"{.	c #00B65F",
"].	c #009B50",
"^.	c #004122",
"/.	c #002312",
"(.	c #000F07",
"_.	c #006736",
":.	c #00984F",
"<.	c #00733C",
"[.	c #005C30",
"}.	c #016535",
"|.	c #01944D",
"1.	c #005F32",
"2.	c #00331B",
"3.	c #00140A",
"4.	c #012A16",
"5.	c #00AA59",
"6.	c #00B05C",
"7.	c #009A51",
"8.	c #00723B",
"9.	c #00592E",
"0.	c #004C28",
"a.	c #004B27",
"b.	c #01572E",
"c.	c #009B51",
"d.	c #004D28",
"e.	c #010703",
"f.	c #01140A",
"g.	c #002B17",
"h.	c #00954D",
"i.	c #00703A",
"j.	c #00582D",
"k.	c #014B27",
"l.	c #00582E",
"m.	c #00B55E",
"n.	c #00974E",
"o.	c #002A16",
"p.	c #011209",
"q.	c #011109",
"r.	c #006836",
"s.	c #00AC5A",
"t.	c #009850",
"u.	c #015C30",
"v.	c #006535",
"w.	c #01180C",
"x.	c #003D20",
"y.	c #006C38",
"z.	c #009A50",
"A.	c #00B05B",
"B.	c #00A054",
"C.	c #008D49",
"D.	c #014122",
"E.	c #000F08",
"F.	c #000C06",
"G.	c #002012",
"H.	c #013C1F",
"I.	c #00552C",
"J.	c #00773F",
"K.	c #006936",
"L.	c #00150C",
"M.	c #011E10",
"N.	c #002816",
"O.	c #00341B",
"P.	c #004020",
"Q.	c #01582E",
"R.	c #00924D",
"S.	c #00AE5B",
"T.	c #001109",
"U.	c #00180D",
"V.	c #00371D",
"W.	c #004424",
"X.	c #00B45E",
"Y.	c #007F42",
"Z.	c #002C18",
"`.	c #000602",
" +	c #010402",
".+	c #010D07",
"++	c #00120A",
"@+	c #011B0E",
"#+	c #012413",
"$+	c #012F19",
"%+	c #003A1E",
"&+	c #00763E",
"*+	c #00A154",
"=+	c #010503",
"-+	c #002614",
";+	c #003F20",
">+	c #007E43",
",+	c #00A959",
"'+	c #010202",
")+	c #01170C",
"!+	c #002011",
"~+	c #01351B",
"{+	c #002211",
"]+	c #011009",
"^+	c #000D06",
"/+	c #001A0E",
"(+	c #003119",
"_+	c #01321A",
":+	c #002D18",
"<+	c #000A06",
"[+	c #010805",
"}+	c #010704",
"|+	c #010604",
"1+	c #000202",
"                                                                                ",
"                                                                                ",
"                                                                                ",
"                                                                                ",
"                                                                                ",
"                                                                                ",
"                                                                                ",
"                                                          . .                   ",
"                                                  + @ # $ $ % # & *             ",
"                                            = @ # - ; > , ' ) ! ~ { ]           ",
"                                    =   ^ / - ( _ : < [ } | 1 2 ) ~ 3           ",
"                                * ] 4 $ 5 6 7 8 9 0 a b c d e f g ! #           ",
"                            + @ h i j k l m n o p q r s s s s t u v w           ",
"                    . . ^ x y z > A B C D E F G s s s s s s s H I J h *         ",
"                  K / $ L M ' N [ O P Q R d s s s s s s s s s S T U h           ",
"            . * { V W ) X Y Z `  .q d s s s s s s s s s s s ..a +.@.#..         ",
"            = $.5 ) N C %.&.*.G s s s s s s s s s =.s s s s -.;.: - ]           ",
"            @ ~ J >.a ,.'.s s s s s s s s s ).!.~.{.s s s ].^./.(.# .           ",
"          . # 6 /._.d s s s s s s s s {.:.<.[.}.|.s s s s 1.2.' y ]             ",
"            h 3.4.5.s s s s s s s 6.7.8.9.0.a.b.6.s s s c.d.[ > # =             ",
"          * e.f.g.t s s s s s s s 6.h.i.j.k.k.l.m.s s s n.k.o.p.x *             ",
"          . x q.+.r.s.s s s s s s s s ).t.8.u.v.n.s s s s b ;.w.% ]             ",
"            & 5 7 Y x.y.z.s s s s s s s s s A.B.C.{.s s s B.D.2 E.{ .           ",
"            ^ # F.) G.C H.I.J.r s s s s s s s s s =.s s s s K.n w.y K           ",
"            . * # i W L.M.N.O.P.Q.R.S.s s s s s s s s s s s s.a B E.&           ",
"              . . ] { e.F.T.U.N u V.W.r.R X.s s s s s s s s s Y.Z.> `..         ",
"                    . . &  +y .+++@+#+$+%+d.&+*+s s s s s s s t I ) $ .         ",
"                          * ] @ =+~ 6 k M.-+;.;+j.>+S.s s s s ,+T v % .         ",
"                                . '+{ % ~ 6 )+!+9 ~+^.b ~.s.d b {+]+# .         ",
"                                    . ] & { - ^+_ /+2 g.(+_+:+g 3.<+@           ",
"                                          * * & h V W > , )+) 6 ~ x ]           ",
"                                                . ] { =+% [+}+|+#.1+*           ",
"                                                      . . . * .                 ",
"                                                                                ",
"                                                                                ",
"                                                                                ",
"                                                                                ",
"                                                                                ",
"                                                                                ",
"                                                                                "};
