/* XPM */
static char * PD_xpm[] = {
"40 40 213 2",
"  	c #000000",
". 	c #000100",
"+ 	c #000302",
"@ 	c #010503",
"# 	c #000703",
"$ 	c #000804",
"% 	c #000502",
"& 	c #000301",
"* 	c #000402",
"= 	c #010A05",
"- 	c #001108",
"; 	c #01150A",
"> 	c #00180C",
", 	c #00160B",
"' 	c #00130A",
") 	c #000D07",
"! 	c #000201",
"~ 	c #000101",
"{ 	c #000A05",
"] 	c #00150B",
"^ 	c #002212",
"/ 	c #012D17",
"( 	c #00331A",
"_ 	c #00311A",
": 	c #002A15",
"< 	c #002211",
"[ 	c #01190D",
"} 	c #001209",
"| 	c #010D07",
"1 	c #010804",
"2 	c #010101",
"3 	c #001009",
"4 	c #002111",
"5 	c #006534",
"6 	c #00B25D",
"7 	c #00AC5A",
"8 	c #008F4B",
"9 	c #014222",
"0 	c #00351B",
"a 	c #002A16",
"b 	c #001F10",
"c 	c #01170C",
"d 	c #001008",
"e 	c #000603",
"f 	c #010301",
"g 	c #010703",
"h 	c #012C16",
"i 	c #00AA58",
"j 	c #00BA61",
"k 	c #00AD5A",
"l 	c #007F42",
"m 	c #00582D",
"n 	c #003E20",
"o 	c #01321A",
"p 	c #012713",
"q 	c #011C0E",
"r 	c #01160C",
"s 	c #000905",
"t 	c #010603",
"u 	c #000401",
"v 	c #002F18",
"w 	c #00B35D",
"x 	c #00A053",
"y 	c #00763D",
"z 	c #004C28",
"A 	c #003A1E",
"B 	c #012E17",
"C 	c #012312",
"D 	c #001B0E",
"E 	c #00140A",
"F 	c #01130A",
"G 	c #002B16",
"H 	c #00B45D",
"I 	c #00934C",
"J 	c #016736",
"K 	c #004423",
"L 	c #00371C",
"M 	c #012B16",
"N 	c #00190C",
"O 	c #001109",
"P 	c #000B06",
"Q 	c #010100",
"R 	c #000E08",
"S 	c #004222",
"T 	c #00914B",
"U 	c #004021",
"V 	c #00341B",
"W 	c #012915",
"X 	c #001E10",
"Y 	c #00150A",
"Z 	c #010E08",
"` 	c #010201",
" .	c #00321A",
"..	c #006936",
"+.	c #00B860",
"@.	c #00A757",
"#.	c #00773E",
"$.	c #01542B",
"%.	c #013B1F",
"&.	c #012E18",
"*.	c #000C06",
"=.	c #010502",
"-.	c #000503",
";.	c #012211",
">.	c #004022",
",.	c #00A154",
"'.	c #00B55E",
").	c #008E4A",
"!.	c #00A054",
"~.	c #00B05C",
"{.	c #00994F",
"].	c #006B38",
"^.	c #003C1F",
"/.	c #002915",
"(.	c #00170C",
"_.	c #000805",
":.	c #013119",
"<.	c #006434",
"[.	c #00964E",
"}.	c #016535",
"|.	c #015C30",
"1.	c #00733B",
"2.	c #009950",
"3.	c #00B65F",
"4.	c #00AC59",
"5.	c #006835",
"6.	c #002313",
"7.	c #00120A",
"8.	c #004B27",
"9.	c #00974E",
"0.	c #00B45E",
"a.	c #00572D",
"b.	c #014B27",
"c.	c #00592F",
"d.	c #00733C",
"e.	c #00B05D",
"f.	c #002B17",
"g.	c #01150B",
"h.	c #010001",
"i.	c #009A50",
"j.	c #00AF5C",
"k.	c #004A26",
"l.	c #004C27",
"m.	c #00592E",
"n.	c #01713A",
"o.	c #00AF5B",
"p.	c #00AA59",
"q.	c #005E31",
"r.	c #00934D",
"s.	c #006435",
"t.	c #015C2F",
"u.	c #00B55F",
"v.	c #006836",
"w.	c #002412",
"x.	c #010E07",
"y.	c #004122",
"z.	c #009B50",
"A.	c #006636",
"B.	c #014323",
"C.	c #00190D",
"D.	c #003119",
"E.	c #00743C",
"F.	c #007D41",
"G.	c #004F29",
"H.	c #002D18",
"I.	c #002011",
"J.	c #01140A",
"K.	c #010B06",
"L.	c #000F07",
"M.	c #002312",
"N.	c #00B35E",
"O.	c #008646",
"P.	c #00331B",
"Q.	c #002815",
"R.	c #011F10",
"S.	c #000E07",
"T.	c #002C17",
"U.	c #00783F",
"V.	c #006735",
"W.	c #004323",
"X.	c #00361C",
"Y.	c #012111",
"Z.	c #00180D",
"`.	c #011108",
" +	c #000704",
".+	c #010000",
"++	c #00160C",
"@+	c #003019",
"#+	c #00AB59",
"$+	c #007C41",
"%+	c #004D28",
"&+	c #002E18",
"*+	c #012313",
"=+	c #001B0F",
"-+	c #010202",
";+	c #002D17",
">+	c #008545",
",+	c #00512A",
"'+	c #003F21",
")+	c #012614",
"!+	c #011D10",
"~+	c #000F08",
"{+	c #011109",
"]+	c #006535",
"^+	c #008A48",
"/+	c #012011",
"(+	c #010401",
"_+	c #000202",
":+	c #012C17",
"<+	c #001A0E",
"[+	c #01180C",
"}+	c #01170B",
"|+	c #000604",
"                                                                                ",
"                                                                                ",
"                                                                                ",
"                                                                                ",
"                                                                                ",
"                                                                                ",
"                                                                                ",
"                      .                                                         ",
"              . + @ # $ # % & .                                                 ",
"            . * = - ; > , ' ) $ % ! ~                                           ",
"            & { ] ^ / ( _ : < [ } | 1 * .                                       ",
"          2 % 3 4 5 6 7 8 5 9 0 a b c d { e f 2                                 ",
"          2 g ] h i j j j j k l m n o p q r | s t u . .                         ",
"          ~ g , v w j j j j j j j x y z A B C D E ) 1 % & .                     ",
"          2 t F G l j j j j j j j j j H I J K L M 4 N O P # * Q                 ",
"          . % R ^ S k j j j j j j j j j j j k T m U V W X Y Z $ % . ~           ",
"            ` 1 N  ...j j j j +.j j j j j j j j j @.#.$.%.&.4 ] *.=..           ",
"              -.R ;.>.,.j j j '.).!.~.j j j j j j j j j {.].^./.(.P +           ",
"              ~ _.> :.<.j j j j [.}.|.1.2.3.j j j j j j j j 4.5.6.O % ~         ",
"              ~ =.7./.8.9.j j j 0.a.b.z c.d.[.e.j j j j j j j 6 f.g.# .         ",
"              h.% F a 8.i.j j j j.a.k.l.m.n.{.o.j j j j j j j p.f.Y t !         ",
"              2 $ > o q.j j j j r.s.t.1.{.u.j j j j j j j j w v.w.- % ~         ",
"              u x.< y.z.j j j u.8 9.'.j j j j j j j j j x A.B./.(.{ +           ",
"            ! s C.D.E.j j j j +.j j j j j j j j j ,.F.G.%.H.I.J.K.% `           ",
"            * L.M.y.k j j j j j j j j j j j N.O.q.>.P.Q.R.g.S.s -.+             ",
"          . e E T.U.j j j j j j j j j 0.r.V.W.X.f.Y.Z.`.*. ++ ! ~               ",
"          .+$ ++@+#+j j j j j j j !.$+%+A &+*+=+F | s t -+~ Q                   ",
"          2 1 g.;+6 j j j j @.>+,+'+ .)+!+] ~+{ e + ! ~                         ",
"          .+e {+;.]+p.w ^+5 9 X.a /+> - P e (+_+~ .                             ",
"            & { ] ;.:+ .D.G ^ <+F ) $ % ! ~ Q                                   ",
"            ! =.{ d ++[+}+} S.$ e * ! .                                         ",
"            .+~ f e |+ +# @ * ` 2                                               ",
"                  . ~   ~ . .                                                   ",
"                                                                                ",
"                                                                                ",
"                                                                                ",
"                                                                                ",
"                                                                                ",
"                                                                                ",
"                                                                                "};
