/* XPM */
static char * PF_xpm[] = {
"40 40 9 1",
" 	c #42FF00",
".	c #3ADF00",
"+	c #082000",
"@	c #000000",
"#	c #39DF00",
"$	c #218000",
"%	c #32BF00",
"&	c #31BF00",
"*	c #32C000",
"                                        ",
"                                        ",
"                                        ",
"                                        ",
"                                        ",
"                                        ",
"                                        ",
"                                        ",
"                                        ",
"                  .++.                  ",
"                 .+@@+.                 ",
"                .+@++@+.                ",
"               .+@+##+@+.               ",
"               $@@%  &@@$               ",
"               #+@+..+@+#               ",
"            .$. #+@++@+# .$.            ",
"           .+@+. #+@@+# .+@+.           ",
"          .+@@@+. #++# .+@@@+.          ",
"         .+@+&+@+.    .+@+&+@+.         ",
"         +@+# #+@+    +@+# #+@+         ",
"         +@+. .+@+    +@+. .+@+         ",
"         #+@+*+@+#    #+@+*+@+#         ",
"          #+@@@+# .++. #+@@@+#          ",
"           #+@+# .+@@+. #+@+#           ",
"            #$# .+@++@+. #$#            ",
"               .+@+##+@+.               ",
"               $@@%  &@@$               ",
"               #+@+..+@+#               ",
"                #+@++@+#                ",
"                 #+@@+#                 ",
"                  #++#                  ",
"                                        ",
"                                        ",
"                                        ",
"                                        ",
"                                        ",
"                                        ",
"                                        ",
"                                        ",
"                                        "};
