/* XPM */
static char * PS_xpm[] = {
"40 40 215 2",
"  	c #000000",
". 	c #000100",
"+ 	c #000302",
"@ 	c #010503",
"# 	c #000603",
"$ 	c #000703",
"% 	c #000402",
"& 	c #000101",
"* 	c #010101",
"= 	c #000301",
"- 	c #010703",
"; 	c #000502",
"> 	c #000201",
", 	c #010A05",
"' 	c #001008",
") 	c #01150A",
"! 	c #00170B",
"~ 	c #00140A",
"{ 	c #000F08",
"] 	c #000905",
"^ 	c #000401",
"/ 	c #000804",
"( 	c #010E07",
"_ 	c #00150A",
": 	c #00170C",
"< 	c #01150B",
"[ 	c #001009",
"} 	c #000B05",
"| 	c #000A05",
"1 	c #00150B",
"2 	c #002212",
"3 	c #012C16",
"4 	c #003019",
"5 	c #002C17",
"6 	c #002311",
"7 	c #00180C",
"8 	c #010603",
"9 	c #010502",
"0 	c #000E07",
"a 	c #012312",
"b 	c #012211",
"c 	c #006534",
"d 	c #00B25D",
"e 	c #00AB59",
"f 	c #01793F",
"g 	c #004222",
"h 	c #01331A",
"i 	c #002312",
"j 	c #00190D",
"k 	c #00120A",
"l 	c #011209",
"m 	c #00321A",
"n 	c #014221",
"o 	c #008042",
"p 	c #00B35D",
"q 	c #00AA58",
"r 	c #006535",
"s 	c #002211",
"t 	c #010804",
"u 	c #00160B",
"v 	c #012D17",
"w 	c #00BA61",
"x 	c #00AD5A",
"y 	c #00753C",
"z 	c #004121",
"A 	c #00331A",
"B 	c #002A16",
"C 	c #012B16",
"D 	c #01321A",
"E 	c #014020",
"F 	c #016A37",
"G 	c #002D18",
"H 	c #00180D",
"I 	c #009B51",
"J 	c #006032",
"K 	c #014C28",
"L 	c #004D27",
"M 	c #00A053",
"N 	c #00AC59",
"O 	c #010704",
"P 	c #01160B",
"Q 	c #003119",
"R 	c #008947",
"S 	c #009A50",
"T 	c #00964E",
"U 	c #00914B",
"V 	c #000503",
"W 	c #00130A",
"X 	c #001309",
"Y 	c #010401",
"Z 	c #010D07",
"` 	c #00A757",
" .	c #00AD5B",
"..	c #014223",
"+.	c #012111",
"@.	c #010D06",
"#.	c #010402",
"$.	c #001A0D",
"%.	c #01351B",
"&.	c #008545",
"*.	c #00B860",
"=.	c #00B65F",
"-.	c #00B55F",
";.	c #01351C",
">.	c #01190D",
",.	c #002915",
"'.	c #01512A",
").	c #01904A",
"!.	c #00944D",
"~.	c #00B05C",
"{.	c #00974E",
"].	c #018D49",
"^.	c #00582E",
"/.	c #012A16",
"(.	c #011309",
"_.	c #010604",
":.	c #010B06",
"<.	c #002010",
"[.	c #003E20",
"}.	c #00A154",
"|.	c #00974F",
"1.	c #006434",
"2.	c #00572D",
"3.	c #01572D",
"4.	c #00A054",
"5.	c #002011",
"6.	c #010C06",
"7.	c #000704",
"8.	c #01170C",
"9.	c #003219",
"0.	c #007C41",
"a.	c #00B55E",
"b.	c #015C30",
"c.	c #004A26",
"d.	c #005B2F",
"e.	c #00763D",
"f.	c #013119",
"g.	c #01180C",
"h.	c #012714",
"i.	c #004D28",
"j.	c #00B45E",
"k.	c #00733B",
"l.	c #004B27",
"m.	c #014C27",
"n.	c #00723B",
"o.	c #004C27",
"p.	c #002614",
"q.	c #011008",
"r.	c #010403",
"s.	c #010201",
"t.	c #000A06",
"u.	c #001E10",
"v.	c #013A1E",
"w.	c #00934C",
"x.	c #009950",
"y.	c #00592E",
"z.	c #00582D",
"A.	c #00984F",
"B.	c #003A1E",
"C.	c #001D0E",
"D.	c #002E18",
"E.	c #006836",
"F.	c #00713B",
"G.	c #006736",
"H.	c #000E08",
"I.	c #002413",
"J.	c #014424",
"K.	c #00B35E",
"L.	c #00954D",
"M.	c #00AE5B",
"N.	c #004423",
"O.	c #000F07",
"P.	c #011B0E",
"Q.	c #00371D",
"R.	c #008546",
"S.	c #00B05B",
"T.	c #00B15C",
"U.	c #00924C",
"V.	c #00371C",
"W.	c #001B0D",
"X.	c #010905",
"Y.	c #015F31",
"Z.	c #00592F",
"`.	c #002B17",
" +	c #012110",
".+	c #00A656",
"++	c #004122",
"@+	c #002111",
"#+	c #000D07",
"$+	c #000200",
"%+	c #00190C",
"&+	c #007D41",
"*+	c #00783E",
"=+	c #010000",
"-+	c #001109",
";+	c #004F29",
">+	c #00552C",
",+	c #012815",
"'+	c #010301",
")+	c #001E0F",
"!+	c #003C1F",
"~+	c #013C1F",
"{+	c #000C06",
"]+	c #006635",
"^+	c #006C38",
"/+	c #002D17",
"(+	c #004223",
"_+	c #003B1F",
":+	c #002814",
"<+	c #00AA59",
"[+	c #00140B",
"}+	c #000C07",
"|+	c #002213",
"1+	c #00160C",
"2+	c #010100",
"                                                                                ",
"                                                                                ",
"                                                                                ",
"                                                                                ",
"                                                                                ",
"                          .                         .                           ",
"                  . + @ # $ # % &           * * = # $ - ; % >                   ",
"                . % , ' ) ! ~ { ] ^ .     . % / ( _ : < [ } ; .                 ",
"                = | 1 2 3 4 5 6 7 ( / 8 9 / 0 7 a 5 4 5 b ~ | +                 ",
"              * # [ 2 c d e f g h i j k l 7 i m n o p q r s ' @ .               ",
"              * t u v q w w w x y z A B C D E F x w w w d G u $ .               ",
"              & t H m p w w w w w I J K L c M w w w w w N A j / .               ",
"              * O P Q R w w w w w w w S T w w w w w w w U Q ! $ .               ",
"              . V W B c w w w w w w w w w w w w w w w w r C X % .               ",
"                Y Z s g ` w w w w w w w w w w w w w w  ...+.@.#.                ",
"                . ] $.%.&.w w w *.=.w w w w -.*.w w w o ;.>.t >                 ",
"                  ; k ,.'.w w w w ).!.~.-.{.].w w w w ^./.(._..                 ",
"                  = :.<.[.}.w w w |.1.2.3.1.M w w w 4.[.5.6.#.                  ",
"                  * 7.8.9.0.w w w a.b.c.c.d.~.w w w e.f.g.t &                   ",
"                  * % ' h.i.j.w w w k.l.m.n.w w w j.o.p.q.r.                    ",
"                    s.t.u.v.w.w w w x.y.z.A.w w w w.B.C.:.>                     ",
"                    & # 1 D.E.w w w a.F.F.=.w w w G.D._ # *                     ",
"                    . % H.I.J.K.w w w S L.w w w M.N.i O.=                       ",
"                      & ] P.Q.R.w w w S.T.w w w U.V.W.X.>                       ",
"                        # W 5 Y.w w w w w w w w Z.`.(.@ >                       ",
"                        = Z  +z }.w w w w w w .+++@+#++ &                       ",
"                        $+] %+A &+w w w w w w *+h j / s.                        ",
"                        =+; -+,.;+w w w w w w >+,+-+V $+                        ",
"                          '+:.)+!+M w w w w x.~+u.{++                           ",
"                          & $ < D.]+w w w w ^+/+1 7.&                           ",
"                            % H.@+(+p w w e _+@+0 Y                             ",
"                            s.t 1 :+E.<+d G.:+[+/ >                             ",
"                            * #.}+P |+`.B i 1+} r..                             ",
"                              & # } ' ~ ~ -+} V >                               ",
"                              . . '+# $ O @ + 2+.                               ",
"                                    . . & &                                     ",
"                                                                                ",
"                                                                                ",
"                                                                                ",
"                                                                                "};
