/* XPM */
static char * PW_xpm[] = {
"40 40 219 2",
"  	c #000000",
". 	c #000100",
"+ 	c #000101",
"@ 	c #000301",
"# 	c #000503",
"$ 	c #000804",
"% 	c #010703",
"& 	c #000603",
"* 	c #010402",
"= 	c #010101",
"- 	c #000201",
"; 	c #000A05",
"> 	c #001108",
", 	c #00150B",
"' 	c #00140B",
") 	c #001009",
"! 	c #000402",
"~ 	c #010201",
"{ 	c #000401",
"] 	c #000C06",
"^ 	c #01170C",
"/ 	c #002412",
"( 	c #012C17",
"_ 	c #012C16",
": 	c #00170B",
"< 	c #010502",
"[ 	c #000904",
"} 	c #01160B",
"| 	c #002915",
"1 	c #006836",
"2 	c #00B25D",
"3 	c #00AA58",
"4 	c #006936",
"5 	c #002815",
"6 	c #00150A",
"7 	c #010804",
"8 	c #000E07",
"9 	c #012112",
"0 	c #003C20",
"a 	c #00AC5A",
"b 	c #00BA61",
"c 	c #00B35D",
"d 	c #014222",
"e 	c #012111",
"f 	c #010D06",
"g 	c #000703",
"h 	c #00160C",
"i 	c #002F18",
"j 	c #006C38",
"k 	c #006635",
"l 	c #012D17",
"m 	c #01150A",
"n 	c #000704",
"o 	c #000200",
"p 	c #001E0F",
"q 	c #003C1E",
"r 	c #009A51",
"s 	c #00A053",
"t 	c #013B1F",
"u 	c #001D0F",
"v 	c #000B05",
"w 	c #001109",
"x 	c #01552C",
"y 	c #004E29",
"z 	c #012815",
"A 	c #001008",
"B 	c #00180C",
"C 	c #00341B",
"D 	c #00773E",
"E 	c #007D41",
"F 	c #00321A",
"G 	c #01180D",
"H 	c #010D07",
"I 	c #002011",
"J 	c #014021",
"K 	c #00A757",
"L 	c #003F21",
"M 	c #010602",
"N 	c #00130A",
"O 	c #002B16",
"P 	c #00582D",
"Q 	c #005E30",
"R 	c #012B15",
"S 	c #011309",
"T 	c #001A0E",
"U 	c #01371D",
"V 	c #00914C",
"W 	c #00B05C",
"X 	c #008445",
"Y 	c #01351B",
"Z 	c #001A0D",
"` 	c #000905",
" .	c #000E08",
"..	c #004323",
"+.	c #00AD5A",
"@.	c #00964E",
"#.	c #009950",
"$.	c #00B35E",
"%.	c #002311",
"&.	c #010E07",
"*.	c #010302",
"=.	c #01150C",
"-.	c #006835",
";.	c #00B55E",
">.	c #00723C",
",.	c #01723B",
"'.	c #00B55F",
").	c #006736",
"!.	c #002E17",
"~.	c #010603",
"{.	c #010200",
"].	c #000A06",
"^.	c #001E10",
"/.	c #013A1D",
"(.	c #00934D",
"_.	c #00592E",
":.	c #00944D",
"<.	c #003A1E",
"[.	c #001C0E",
"}.	c #010B05",
"|.	c #000502",
"1.	c #002613",
"2.	c #004C27",
"3.	c #00B45E",
"4.	c #00723B",
"5.	c #004B27",
"6.	c #004D28",
"7.	c #001007",
"8.	c #00170C",
"9.	c #003219",
"0.	c #00763E",
"a.	c #015C30",
"b.	c #014A27",
"c.	c #004A26",
"d.	c #015B2F",
"e.	c #007C41",
"f.	c #00160B",
"g.	c #001F10",
"h.	c #003E20",
"i.	c #00A054",
"j.	c #016433",
"k.	c #00562D",
"l.	c #00572D",
"m.	c #006334",
"n.	c #00974F",
"o.	c #013D20",
"p.	c #002010",
"q.	c #010C05",
"r.	c #000302",
"s.	c #001209",
"t.	c #002A15",
"u.	c #008D48",
"v.	c #00B05B",
"w.	c #00934C",
"x.	c #00904A",
"y.	c #015129",
"z.	c #002A16",
"A.	c #011209",
"B.	c #010904",
"C.	c #00190D",
"D.	c #007E42",
"E.	c #00B860",
"F.	c #00B65E",
"G.	c #012211",
"H.	c #014121",
"I.	c #00A756",
"J.	c #004121",
"K.	c #000D06",
"L.	c #016434",
"M.	c #006434",
"N.	c #010001",
"O.	c #003119",
"P.	c #008F4B",
"Q.	c #009A50",
"R.	c #008947",
"S.	c #00301A",
"T.	c #013219",
"U.	c #00AC59",
"V.	c #00A154",
"W.	c #006534",
"X.	c #014B27",
"Y.	c #005F32",
"Z.	c #009B51",
"`.	c #01321A",
" +	c #012E17",
".+	c #006A36",
"++	c #004122",
"@+	c #012B16",
"#+	c #012A16",
"$+	c #00321B",
"%+	c #00753D",
"&+	c #00AA59",
"*+	c #002D17",
"=+	c #012312",
"-+	c #006535",
";+	c #007F42",
">+	c #002312",
",+	c #01180C",
"'+	c #00120A",
")+	c #00180D",
"!+	c #004222",
"~+	c #007A3F",
"{+	c #00AB5A",
"]+	c #002212",
"^+	c #010301",
"/+	c #010B06",
"(+	c #012D18",
"_+	c #012F19",
":+	c #010F07",
"<+	c #012413",
"[+	c #000B06",
"}+	c #010503",
"|+	c #00140A",
"1+	c #000F07",
"2+	c #000F08",
"3+	c #01140B",
"4+	c #010704",
"5+	c #000403",
"6+	c #010100",
"                                                                                ",
"                                                                                ",
"                                                                                ",
"                                                                                ",
"                                                                                ",
"                                      . .                                       ",
"                                + @ # $ % & * =                                 ",
"                              - # ; > , ' ) ; ! ~                               ",
"                            . { ] ^ / ( _ / : ; <                               ",
"                            = [ } | 1 2 3 4 5 6 7 ~                             ",
"                            ! 8 9 0 a b b c d e f !                             ",
"                          . g h i j b b b b k l m n +                           ",
"                          o ] p q r b b b b s t u v ~                           ",
"                          { w | x b b b b b b y z A ! +                         ",
"                        + $ B C D b b b b b b E F G 7 -                         ",
"                        @ H I J K b b b b b b s L e f @                         ",
"                        M N O P b b b b b b b b Q R S & =                       ",
"                      - [ T U V b b b W W b b b X Y Z ` -                       ",
"                      <  ./ ..+.b b b @.#.b b b $...%.&.*..                     ",
"                    . g =.i -.b b b ;.>.,.'.b b b ).!.6 ~.=                     ",
"                    {.].^./.(.b b b #._._.#.b b b :.<.[.}.-                     ",
"                    |.) 1.2.3.b b b 4.5.2.,.b b b 3.6.1.7.*                     ",
"                  + $ 8.9.0.b b b W a.b.c.d.;.b b b e.F f.$ ~                   ",
"                  - ] g.h.i.b b b i.j.k.l.m.n.b b b s o.p.q.r.                  ",
"                  |.s.t.l.b b b b u.@.;.v.w.x.b b b b y.z.A.<                   ",
"                ~ B.C.Y D.b b b E.F.b b b b F.E.b b b X C Z [ ~                 ",
"                r.H G.H.+.b b b b b b b b b b b b b b I.J.G.K.-                 ",
"                |.s.O L.b b b b b b b b b b b b b b b b M.O N * .               ",
"              N.n } O.P.b b b b b b b @.Q.b b b b b b b R.S.8.~.                ",
"              N.7 B T.U.b b b b b V.W.2.X.Y.Z.b b b b b c `.B 7 +               ",
"              = n f. +2 b b b +..+++F @+#+$+++%++.b b b &+*+, ~..               ",
"              . & ) =+-+&+c ;+d F >+,+s.'+)+>+F !+~+{+2 -+]+) # .               ",
"                ^+/+} e (+_+l =+C.:+[ & # ` A )+<+*+S.*+>+, [+r.                ",
"                + }+; w } 8.|+1+` |.- . . - |.` 2+3+B h w /+# -                 ",
"                = + r.}+4+n & 5+- 6+.       . ~ # g $ 7 & r.- +                 ",
"                      . + + .                   . + . - + .                     ",
"                                                                                ",
"                                                                                ",
"                                                                                ",
"                                                                                "};
