/* XPM */
static char * PW2_xpm[] = {
"40 40 215 2",
"  	c #000000",
". 	c #FFFFFF",
"+ 	c #000100",
"@ 	c #000101",
"# 	c #010001",
"$ 	c #000201",
"% 	c #000402",
"& 	c #000502",
"* 	c #000603",
"= 	c #000703",
"- 	c #010B05",
"; 	c #000F08",
"> 	c #010F08",
", 	c #010B06",
"' 	c #010100",
") 	c #010D07",
"! 	c #00160B",
"~ 	c #30463B",
"{ 	c #30453B",
"] 	c #01150B",
"^ 	c #000D07",
"/ 	c #000503",
"( 	c #000301",
"_ 	c #000A05",
": 	c #002111",
"< 	c #BFCAC5",
"[ 	c #BFC8C4",
"} 	c #012211",
"| 	c #01150A",
"1 	c #010804",
"2 	c #010302",
"3 	c #000E07",
"4 	c #001C0F",
"5 	c #214433",
"6 	c #EFF2F1",
"7 	c #EFF3F1",
"8 	c #103825",
"9 	c #001B0D",
"0 	c #000D06",
"a 	c #010402",
"b 	c #010101",
"c 	c #000804",
"d 	c #001109",
"e 	c #607E6F",
"f 	c #9FB7AB",
"g 	c #90AB9E",
"h 	c #80968B",
"i 	c #012111",
"j 	c #001209",
"k 	c #010704",
"l 	c #000B06",
"m 	c #00160C",
"n 	c #012513",
"o 	c #CFD8D4",
"p 	c #406D57",
"q 	c #406D58",
"r 	c #BFCBC5",
"s 	c #002513",
"t 	c #010201",
"u 	c #000F07",
"v 	c #001A0E",
"w 	c #304F40",
"x 	c #DFE5E2",
"y 	c #00371C",
"z 	c #405C4E",
"A 	c #00180D",
"B 	c #010904",
"C 	c #001309",
"D 	c #011F11",
"E 	c #A0ADA6",
"F 	c #80978C",
"G 	c #003019",
"H 	c #909F98",
"I 	c #001D10",
"J 	c #011109",
"K 	c #010401",
"L 	c #000C06",
"M 	c #00170C",
"N 	c #002211",
"O 	c #DFE4E1",
"P 	c #204332",
"Q 	c #002714",
"R 	c #012815",
"S 	c #214333",
"T 	c #EFF1F0",
"U 	c #000B05",
"V 	c #010000",
"W 	c #011C0F",
"X 	c #50695D",
"Y 	c #C0C9C4",
"Z 	c #002413",
"` 	c #001F10",
" .	c #012313",
"..	c #BFC9C4",
"+.	c #405B4E",
"@.	c #010301",
"#.	c #000A04",
"$.	c #00130A",
"%.	c #60776C",
"&.	c #001E10",
"*.	c #01180C",
"=.	c #00180C",
"-.	c #001E0F",
";.	c #70847A",
">.	c #AFBAB5",
",.	c #011F10",
"'.	c #011309",
").	c #000904",
"!.	c #010D06",
"~.	c #203E2F",
"{.	c #203D30",
"].	c #01190D",
"^.	c #103021",
"/.	c #000C05",
"(.	c #011C0E",
"_.	c #60766B",
":.	c #9FAEA7",
"<.	c #00140B",
"[.	c #B0BBB6",
"}.	c #001008",
"|.	c #002011",
"1.	c #BFC9C5",
"2.	c #50685D",
"3.	c #010A05",
"4.	c #012010",
"5.	c #00140A",
"6.	c #00190E",
"7.	c #203F30",
"8.	c #DFE4E2",
"9.	c #002614",
"0.	c #010F07",
"a.	c #011D0F",
"b.	c #002412",
"c.	c #203E30",
"d.	c #80928A",
"e.	c #9FB0A8",
"f.	c #002814",
"g.	c #001B0E",
"h.	c #002010",
"i.	c #002713",
"j.	c #90A29A",
"k.	c #809289",
"l.	c #001D0F",
"m.	c #00110A",
"n.	c #000C07",
"o.	c #305945",
"p.	c #012D17",
"q.	c #002815",
"r.	c #405A4C",
"s.	c #60756A",
"t.	c #012514",
"u.	c #002C17",
"v.	c #406553",
"w.	c #EFF2F0",
"x.	c #002514",
"y.	c #01170C",
"z.	c #010603",
"A.	c #001009",
"B.	c #406151",
"C.	c #CFDAD5",
"D.	c #01391D",
"E.	c #00351C",
"F.	c #204A35",
"G.	c #9FAFA8",
"H.	c #204935",
"I.	c #01341B",
"J.	c #00371D",
"K.	c #BFCEC7",
"L.	c #406051",
"M.	c #010905",
"N.	c #A0B1A9",
"O.	c #608774",
"P.	c #10492D",
"Q.	c #8FA89D",
"R.	c #70877C",
"S.	c #002915",
"T.	c #012A16",
"U.	c #607A6D",
"V.	c #9FB4AA",
"W.	c #20533A",
"X.	c #809E8F",
"Y.	c #90A49A",
"Z.	c #002312",
"`.	c #01130A",
" +	c #012714",
".+	c #90AA9D",
"++	c #103523",
"@+	c #011E0F",
"#+	c #002112",
"$+	c #204131",
"%+	c #DFE6E3",
"&+	c #709181",
"*+	c #103322",
"=+	c #000905",
"-+	c #00150B",
";+	c #60746A",
">+	c #C0CAC5",
",+	c #204835",
"'+	c #002613",
")+	c #214835",
"!+	c #50665B",
"~+	c #30443B",
"{+	c #40584C",
"]+	c #60736A",
"^+	c #30433A",
"/+	c #011008",
"(+	c #01140A",
"_+	c #000302",
":+	c #000E08",
"<+	c #010502",
"[+	c #000202",
"}+	c #010503",
"|+	c #000704",
"1+	c #000805",
"2+	c #010200",
"                                                                                ",
". . . . . . . . . . . . . . . . . . . . . . . . . . . . . . . . . . . . . . . . ",
".                                                                             . ",
".                                                                             . ",
".                                                                             . ",
".                                                                             . ",
".                                                                             . ",
".                                 +   @ @ # +                                 . ",
".                               + $ % & * % $ @                               . ",
".                               $ = - ; > , * $                               . ",
".                             ' * ) ! ~ { ] ^ / @                             . ",
".                             ( _ ] : < [ } | 1 2                             . ",
".                             % 3 4 5 6 7 8 9 0 a b                           . ",
".                           + c d : e f g h i j k +                           . ",
".                           $ l m n o p q r s ! _ t                           . ",
".                         + % u v w x y y 6 z A ^ % b                         . ",
".                         + B C D E F G G F H I J c t                         . ",
".                         K L M N O P Q R S T i ! U t V                       . ",
".                       @ * ; W X Y Z ` `  ...+.v u a +                       . ",
".                       @.#.$.` E %.&.*.=.-.;.>.,.'.).$                       . ",
".                       % !.M ~.. {.A d j ].^.O ^.*./.( @                     . ",
".                     V * d (._.:.,.<.L U $.` [.;.(.}.* +                     . ",
".                     $ _ <.|.1.2.W d 3.).d W +.[ 4.5._ $                     . ",
".                     & 3 6.7.8.9.4 5.0.> 5.a.b.6 c.A ^ &                     . ",
".                   $ c j &.d.e.f.: g.].=.4 h.i.j.k.l.m.k $                   . ",
".                   ( n.A 9.8.o.p.q.n r.s.t.R u.v.w.x.y., %                   . ",
".                 b z.A.D B.C.D.E.F.< x x G.H.I.J.K.L.&.A.* @                 . ",
".                 @ M.] n N.O.P.Q.6 R.S.T.U.x V.W.X.Y.Z.`.c b                 . ",
".                 @ _ M  +6 .+7 Y.++: @+&.#+$+N.%+&+6 *+m =+(                 . ",
".                 ( M.-+;+. >+,+'+l.-+d j -+g.s )+N.. !+-+=+$                 . ",
".                 t c > ~+{+Z.&.y.A.3.k * M.; m l.N ]+^+; c t                 . ",
".                 @ & - /+(+$.; l * _+$ t 2 * l }.C `.:+=+<+@                 . ",
".                 @ [+}+|+1+1 z.2 $       + + ( / |+1+k % $ +                 . ",
".                   b t 2+t t t '               @ t $ @ @                     . ",
".                                                                             . ",
".                                                                             . ",
".                                                                             . ",
".                                                                             . ",
".                                                                             . ",
".                                                                             . "};
