/* XPM */
static char *_2223a07f5864fcbd0de35c62f05828fqBVmdHEctDKqvITV[] = {
/* columns rows colors chars-per-pixel */
"40 40 47 1 ",
"  c black",
". c #0A0900",
"X c #554A00",
"o c #A89200",
"O c #CEB300",
"+ c #E2C500",
"@ c #F6D600",
"# c #151200",
"$ c #9B8700",
"% c #F5D500",
"& c #FFDE00",
"* c #090800",
"= c #7B6B00",
"- c #F2D300",
"; c #7A6A00",
": c #131100",
"> c #C5AB00",
", c #C3AA00",
"< c #141100",
"1 c #282300",
"2 c #DFC200",
"3 c #DDC000",
"4 c #2A2500",
"5 c #E4C600",
"6 c #E3C600",
"7 c #C7AD00",
"8 c #C6AC00",
"9 c #887600",
"0 c #201C00",
"q c #F7D700",
"w c #171400",
"e c #9D8900",
"r c #978300",
"t c #060500",
"y c #F1D200",
"u c #F0D100",
"i c #483F00",
"p c #C0A700",
"a c #D8BC00",
"s c #211D00",
"d c #161300",
"f c #D1B600",
"g c #1C1800",
"h c #262100",
"j c #1A1700",
"k c #A38E00",
"l c #504600",
/* pixels */
"                                        ",
"                                        ",
"                                        ",
"                                        ",
"              .XoO+@@+OoX.              ",
"            #$%&&&&&&&&&&%$#            ",
"          *=-&&&&&&&&&&&&&&-;*          ",
"         :>&&&&&&&&&&&&&&&&&&,<         ",
"        12&&&&&&&&&&&&&&&&&&&&34        ",
"       <5&&&&&&&&&&&&&&&&&&&&&&6<       ",
"      *7&&&&&&&&&&&&&&&&&&&&&&&&8*      ",
"      9&&&&&&&&&&&&&&&&&&&&&&&&&&9      ",
"     0q&&&&&&&&&&&&&&&&&&&&&&&&&&qw     ",
"     e&&&&&&&&&&&&&&&&&&&&&&&&&&&&r     ",
"    ty&&&&&&&&&&&&&&&&&&&&&&&&&&&&ut    ",
"    i&&&&&&&&&&&&&&&&&&&&&&&&&&&&&&i    ",
"    r&&&&&&&&&&&&&&&&&&&&&&&&&&&&&&r    ",
"    p&&&&&&&&&&&&&&&&&&&&&&&&&&&&&&p    ",
"    a&&&&&&&&&&&&&&&&&&&&&&&&&&&&&&a    ",
"    u&&&&&&&&&&&&&&&&&&&&&&&&&&&&&&u    ",
"    u&&&&&&&&&&&&&&&&&&&&&&&&&&&&&&u    ",
"    a&&&&&&&&&&&&&&&&&&&&&&&&&&&&&&a    ",
"    p&&&&&&&&&&&&&&&&&&&&&&&&&&&&&&p    ",
"    r&&&&&&&&&&&&&&&&&&&&&&&&&&&&&&r    ",
"    i&&&&&&&&&&&&&&&&&&&&&&&&&&&&&&i    ",
"    tu&&&&&&&&&&&&&&&&&&&&&&&&&&&&yt    ",
"     e&&&&&&&&&&&&&&&&&&&&&&&&&&&&r     ",
"     sq&&&&&&&&&&&&&&&&&&&&&&&&&&qd     ",
"      9&&&&&&&&&&&&&&&&&&&&&&&&&&9      ",
"      *f&&&&&&&&&&&&&&&&&&&&&&&&7*      ",
"       g6&&&&&&&&&&&&&&&&&&&&&&5<       ",
"        h3&&&&&&&&&&&&&&&&&&&&2h        ",
"         <,&&&&&&&&&&&&&&&&&&>:         ",
"          t=@&&&&&&&&&&&&&&-=t          ",
"            j$%&&&&&&&&&&%$#            ",
"              .XoO+@@+Okl.              ",
"                                        ",
"                                        ",
"                                        ",
"                                        "
};
