/* XPM */
static char * well1_xpm[] = {
"40 40 2 1",
" 	c #00C868",
".	c #000000",
"                                        ",
" ...................................... ",
" ...................................... ",
" ...................................... ",
" ...................................... ",
" ...................................... ",
" ...................................... ",
" ...................................... ",
" ...................................... ",
" ...................................... ",
" ...................................... ",
" ...................................... ",
" ...................................... ",
" ...................................... ",
" ...................................... ",
" ...................................... ",
" ...................................... ",
" ...................................... ",
" ...................................... ",
" ...................................... ",
" ...................................... ",
" ...................................... ",
" ...................................... ",
" ...................................... ",
" ...................................... ",
" ...................................... ",
" ...................................... ",
" ...................................... ",
" ...................................... ",
" ...................................... ",
" ...................................... ",
" ...................................... ",
" ...................................... ",
" ...................................... ",
" ...................................... ",
" ...................................... ",
" ...................................... ",
" ...................................... ",
" ...................................... ",
"                                        "};
