/* XPM */
static char *_825228a43e54272fd59123dc4dbe1a9IRl5eGoLZmNY0aMn[] = {
/* columns rows colors chars-per-pixel */
"40 40 82 1 ",
"  c black",
". c #3A3A00",
"X c #5A5A00",
"o c #737300",
"O c #393900",
"+ c #1E1E00",
"@ c #8F8F00",
"# c #F2F200",
"$ c #CDCD06",
"% c #DBDB06",
"& c #DAD909",
"* c #CECE06",
"= c #F2F100",
"- c #8E8E00",
"; c #1C1C00",
": c #8D8D01",
"> c #EDED01",
", c #CCCB0E",
"< c #BCBA15",
"1 c #B8B617",
"2 c #BDBB15",
"3 c #EEEE01",
"4 c #898901",
"5 c #DAD901",
"6 c #CDCC0D",
"7 c #D8D801",
"8 c #D3D302",
"9 c #C4C212",
"0 c #C5C312",
"q c #D1D102",
"w c #DADA01",
"e c #C4C312",
"r c #919101",
"t c #CECD0D",
"y c #CFCE0D",
"u c #909002",
"i c #F1F101",
"p c #1A1A00",
"a c #959501",
"s c #CFCE0F",
"d c #D0CF0F",
"f c #929201",
"g c #F3F300",
"h c #BDBC15",
"j c #F0F000",
"k c #CFCF06",
"l c #353500",
"z c #DEDD07",
"x c #DCDB06",
"c c #585800",
"v c #DCDB0A",
"b c #727200",
"n c #D9D909",
"m c #D0D006",
"M c #D2D106",
"N c #BEBC15",
"B c #949401",
"V c #D0CF0E",
"C c #909001",
"Z c #EFEF01",
"A c #181800",
"S c #8A8A01",
"D c #878701",
"F c #C5C412",
"G c #C6C411",
"H c #D5D501",
"J c #C6C412",
"K c #C7C611",
"L c #CECD02",
"P c #D7D701",
"I c #D0CF0D",
"U c #D4D401",
"Y c #CDCC0E",
"T c #F1F001",
"R c #878601",
"E c #8C8C00",
"W c #EFEF00",
"Q c #CFCE06",
"! c #DADA09",
"~ c #D0CF06",
"^ c #EEEE00",
"/ c #8A8A00",
/* pixels */
"                                        ",
"                                        ",
"                                        ",
"                                        ",
"                                        ",
"                                        ",
"                                        ",
"                 .XooXO                 ",
"              +@#$%&&%*=-;              ",
"             :>,<1111112,34             ",
"            5611111111111167            ",
"           89111111111111110q           ",
"          w01111111111111111e7          ",
"         rt111111111111111111yu         ",
"        +311111111111111111111ip        ",
"        as11111111111111111111df        ",
"        g<11111111111111111111hj        ",
"       .k1111111111111111111111kl       ",
"       Xz1111111111111111111111xc       ",
"       ov1111111111111111111111&b       ",
"       on1111111111111111111111&b       ",
"       X%1111111111111111111111xc       ",
"       Om1111111111111111111111Ml       ",
"        #211111111111111111111Nj        ",
"        Bs11111111111111111111VC        ",
"        ;Z11111111111111111111iA        ",
"         S6111111111111111111tD         ",
"          7F1111111111111111GH          ",
"           qJ11111111111111KL           ",
"            PI111111111111tU            ",
"             4ZYh111111NYTR             ",
"              pEWQx!!x~^/A              ",
"                 lcbbcl                 ",
"                                        ",
"                                        ",
"                                        ",
"                                        ",
"                                        ",
"                                        ",
"                                        "
};
