/* XPM */
static char * C_xpm[] = {
"40 40 285 2",
"  	c #668714",
". 	c #003D21",
"+ 	c #013E21",
"@ 	c #013D21",
"# 	c #023E21",
"$ 	c #033F22",
"% 	c #044021",
"& 	c #064121",
"* 	c #074221",
"= 	c #094421",
"- 	c #094321",
"; 	c #033F21",
"> 	c #074121",
", 	c #0B4520",
"' 	c #0F4820",
") 	c #144B1F",
"! 	c #174D1F",
"~ 	c #184E1E",
"{ 	c #194E1F",
"] 	c #194E1E",
"^ 	c #0B451F",
"/ 	c #013E22",
"( 	c #084320",
"_ 	c #0D4620",
": 	c #1B501E",
"< 	c #23561D",
"[ 	c #285A1C",
"} 	c #2E5D1B",
"| 	c #31601B",
"1 	c #32611B",
"2 	c #295A1C",
"3 	c #23551D",
"4 	c #054121",
"5 	c #0A4520",
"6 	c #134A20",
"7 	c #1D521E",
"8 	c #34621B",
"9 	c #3E6919",
"0 	c #467019",
"a 	c #4C7318",
"b 	c #507617",
"c 	c #527717",
"d 	c #517617",
"e 	c #4D7417",
"f 	c #477018",
"g 	c #3F691A",
"h 	c #295A1D",
"i 	c #134B1F",
"j 	c #0E4720",
"k 	c #184E1F",
"l 	c #26581D",
"m 	c #34631B",
"n 	c #446E19",
"o 	c #5B7E16",
"p 	c #648415",
"q 	c #678714",
"r 	c #6A8914",
"s 	c #6C8A13",
"t 	c #6B8914",
"u 	c #688715",
"v 	c #638315",
"w 	c #517618",
"x 	c #436D19",
"y 	c #35631B",
"z 	c #023F21",
"A 	c #064221",
"B 	c #1B511E",
"C 	c #2C5D1C",
"D 	c #3E691A",
"E 	c #4F7517",
"F 	c #5D8015",
"G 	c #698814",
"H 	c #92A60E",
"I 	c #C1C808",
"J 	c #EEE802",
"K 	c #F7EE01",
"L 	c #FFF500",
"M 	c #E5E203",
"N 	c #CACE07",
"O 	c #93A60F",
"P 	c #6A8814",
"Q 	c #5E8115",
"R 	c #4F7618",
"S 	c #1C511E",
"T 	c #0F481F",
"U 	c #023E22",
"V 	c #2E5E1C",
"W 	c #436C19",
"X 	c #567B17",
"Y 	c #668615",
"Z 	c #93A70E",
"` 	c #EDE802",
" .	c #A5B40C",
"..	c #2E5E1B",
"+.	c #0D4720",
"@.	c #054120",
"#.	c #0C4620",
"$.	c #194F1E",
"%.	c #2D5E1C",
"&.	c #597D16",
"*.	c #6B8A14",
"=.	c #C2C809",
"-.	c #587D17",
";.	c #426D19",
">.	c #2C5C1C",
",.	c #094320",
"'.	c #144C1F",
").	c #285A1D",
"!.	c #3E6A19",
"~.	c #577C17",
"{.	c #6C8A14",
"].	c #E4E203",
"^.	c #E0DE04",
"/.	c #E5E204",
"(.	c #567B16",
"_.	c #074220",
":.	c #023F22",
"<.	c #1E521E",
"[.	c #36641B",
"}.	c #507718",
"|.	c #90A40E",
"1.	c #10481F",
"2.	c #20541D",
"3.	c #90A50E",
"4.	c #4F7617",
"5.	c #35621A",
"6.	c #084221",
"7.	c #2A5B1C",
"8.	c #456F19",
"9.	c #5F8116",
"0.	c #A6B50C",
"a.	c #CFD206",
"b.	c #507716",
"c.	c #CFD306",
"d.	c #DFDE04",
"e.	c #94A70E",
"f.	c #5E8015",
"g.	c #2A5A1C",
"h.	c #0C4520",
"i.	c #35621B",
"j.	c #EDE803",
"k.	c #EFEA02",
"l.	c #9FB00C",
"m.	c #6A8913",
"n.	c #517717",
"o.	c #0C451F",
"p.	c #0F4920",
"q.	c #22561D",
"r.	c #3F6A19",
"s.	c #5B7F16",
"t.	c #507717",
"u.	c #A0B00C",
"v.	c #5A7E16",
"w.	c #3E6A1A",
"x.	c #24561C",
"y.	c #11491F",
"z.	c #064220",
"A.	c #134C1F",
"B.	c #295B1D",
"C.	c #476F19",
"D.	c #638415",
"E.	c #CACF08",
"F.	c #305F1B",
"G.	c #30601A",
"H.	c #608214",
"I.	c #C2C808",
"J.	c #467018",
"K.	c #2A5A1B",
"L.	c #084321",
"M.	c #164C1F",
"N.	c #2D5E1B",
"O.	c #4D7418",
"P.	c #688714",
"Q.	c #EFE902",
"R.	c #4C7417",
"S.	c #2F5E1B",
"T.	c #174E1E",
"U.	c #094420",
"V.	c #174E1F",
"W.	c #10491F",
"X.	c #F6EF01",
"Y.	c #184F1E",
"Z.	c #32611A",
"`.	c #6D8A13",
" +	c #527816",
".+	c #33611A",
"++	c #32601B",
"@+	c #F7EF01",
"#+	c #406B19",
"$+	c #2F5F1B",
"%+	c #4E7518",
"&+	c #698714",
"*+	c #8FA50F",
"=+	c #D0D306",
"-+	c #809910",
";+	c #174D1E",
">+	c #08431F",
",+	c #144B1E",
"'+	c #2A5C1C",
")+	c #477118",
"!+	c #648414",
"~+	c #C2C908",
"{+	c #CACE06",
"]+	c #628514",
"^+	c #295B1B",
"/+	c #064120",
"(+	c #24561D",
"_+	c #5D7F15",
":+	c #94A80E",
"<+	c #93A70F",
"[+	c #5A7F15",
"}+	c #1D511D",
"|+	c #37631A",
"1+	c #537817",
"2+	c #EEE902",
"3+	c #34631A",
"4+	c #1C511D",
"5+	c #164C1E",
"6+	c #2B5B1C",
"7+	c #466E17",
"8+	c #608215",
"9+	c #95A80E",
"0+	c #A5B30C",
"a+	c #446D18",
"b+	c #154C1E",
"c+	c #0E471F",
"d+	c #20531D",
"e+	c #36651A",
"f+	c #517816",
"g+	c #35631A",
"h+	c #1F531E",
"i+	c #044020",
"j+	c #3F6B19",
"k+	c #577C16",
"l+	c #E4E204",
"m+	c #6B8A13",
"n+	c #26581C",
"o+	c #134B1E",
"p+	c #C3C908",
"q+	c #587C16",
"r+	c #426C19",
"s+	c #2C5D1B",
"t+	c #034021",
"u+	c #0E461F",
"v+	c #446E18",
"w+	c #577B16",
"x+	c #A6B40B",
"y+	c #678614",
"z+	c #0E4620",
"A+	c #2D5D1B",
"B+	c #5F8115",
"C+	c #93A80E",
"D+	c #CACF07",
"E+	c #1B511D",
"F+	c #0F471F",
"G+	c #27591C",
"H+	c #36631A",
"I+	c #456E18",
"J+	c #648514",
"K+	c #678814",
"L+	c #6C8B13",
"M+	c #688814",
"N+	c #628314",
"O+	c #5B7E15",
"P+	c #356319",
"Q+	c #25591C",
"R+	c #1F531D",
"S+	c #3F6A18",
"T+	c #4D7517",
"U+	c #527818",
"V+	c #295B1C",
"W+	c #1D521D",
"X+	c #044121",
"Y+	c #0E481F",
"Z+	c #154C1F",
"`+	c #23571D",
" @	c #2E5F1B",
".@	c #33611B",
"+@	c #1C521D",
"@@	c #154D1E",
"#@	c #194F1D",
"$@	c #1A501E",
"%@	c #174D1D",
"&@	c #054021",
"*@	c #09431F",
"                                                                                ",
"  . . . . . . . . . . . . . . . . . . . . . . . . . . . . . . . . . . . . . .   ",
"  . . . . . . . . . . . . . . . . . . . . . . . . . . . . . . . . . . . . . .   ",
"  . . . . . . . . . . . . . . . . . + + + + @ . . . . . . . . . . . . . . . .   ",
"  . . . . . . . . . . . . . # $ % & * = - - * & % ; + . . . . . . . . . . . .   ",
"  . . . . . . . . . . . # % > , ' ) ! ~ { ] ! ) ' ^ * % + + . . . . . . . . .   ",
"  . . . . . . . . . / % ( _ ) : < [ } | 1 | } 2 3 : ) _ ( ; + . . . . . . . .   ",
"  . . . . . . . . # 4 5 6 7 [ 8 9 0 a b c d e f g 8 h 7 i , 4 # . . . . . . .   ",
"  . . . . . . + # & j k l m n b o p q r s t u v o w x y l ~ j & z . . . . . .   ",
"  . . . . . . # A ' B C D E F G H I J K L L M N O P Q R D C S T A # . . . . .   ",
"  . . . . . U & j S V W X Y Z ` L L L L L L L L L `  .  X x ..S +.@./ . . . .   ",
"  . . . . + % #.$.%.x &.*.=.L L L L L L L L L L L L L I *.-.;.>.] , % + . . .   ",
"  . . . . U ,.'.).!.~.{.].L L L L L L L ^.L L L L L L L /.s (.9 l i _.:.. . .   ",
"  . . . + % j <.[.}.q =.L L L L L L |.1.1.2.3.L L L L L L I q 4.5.<._ % . . .   ",
"  . . . / 6.'.7.8.9.0.L L L L a.b.2.2.c.L d.2.2.b.d.L L L L e.f.n g.'.( # . .   ",
"  . . . ; h.S i.c r j.L L L d.2.|.a.k.L L L d.a.l.2.c.L L L J m.n.m S o.; . .   ",
"  . . . 4 p.q.r.s.e.L L L L t.u.L L L L L L L L L |.t.L L L L Z v.w.x.y.% . .   ",
"  . . . z.A.B.C.D.E.L L L L F.c.L L a.b.G.H.d.L L c.2.L L L L I.D.J.K.'.& + .   ",
"  . . # L.M.N.O.P./.L L L |.2.d.L d.2.|.a.l.2.k.L Q.2.3.L L L ` P.R.S.T.( + .   ",
"  . . + U.V.| n.t L L L L 2.d.L L t.u.L L L k.L L L c.W.L L L X.m.t.| Y.,.+ .   ",
"  . . + U.$.Z.n.*.L L L d.2.L L L 2.^.L L L L L L L L 1.^.L L L `. +.+$.U.+ .   ",
"  . . + U.k ++n.*.@+L L L 1.d.L L #+3.L L L k.L L L d.2.L L L L t t.| Y.U.+ .   ",
"  . . + L.! $+%+&+J L L L *+2.k.L a.2.u.=+-+2.k.L d.2.*+L L L M P.e ..;+>++ .   ",
"  . . . _.,+'+)+!+~+L L L L 2.c.L L d.b F.b a.L L c.2.L L L L {+]+f ^+,+/++ .   ",
"  . . + 4 W.(+#+_+:+L L L L t.3.L L L L L L L L L l.t.L L L L <+[+!.< W.% + .   ",
"  . . . $ #.}+|+1+s J L L L a.2.u.=+d.L L L k.=+|.2.d.L L L 2+r t.3+4+h.% . .   ",
"  . . . # ,.5+6+7+8+9+L L L L d.b 2.2.d.L d.2.2.b a.L L L L 0+Q a+^+b+( # . .   ",
"  . . . . % c+d+e+f+P.~+L L L L L L *+2.2.1.*+L L L L L L ~+q 4.g+h+_ i++ . .   ",
"  . . . + z U.'.[ j+k+s M L L L L L L L d.L L L L L L L l+m+(.9 n+o+_.z . . .   ",
"  . . . . + % #.] N.n &.*.p+L L L L L L L L L L L L L I.*.q+r+s+Y., t+z . . .   ",
"  . . . . . :./+u+4+S.v+w+q x+2+L L L L L L L L L J 9+y+(.r+..4+z+& + . . . .   ",
"  . . . . . / z > 1.S A+r.n.B+m.C+D+M L L @+J I :+m.Q b !.s+E+F+4 z . . . . .   ",
"  . . . . . . + z _.c+$.G+H+I+f+s.J+K+*.L+*.M+N+O+n.v+P+Q+] j z.$ + . . . . .   ",
"  . . . . . . . / ; /+#.'.R+7.g+S+f T+t.U+}.e f r.3+V+W+o+, /+z . . . . . . .   ",
"  . . . . . . . . + z X+,.Y+Z+7 `+V+ @1 .@1 S.V+x.+@@@j ,.% # . . . . . . . .   ",
"  . . . . . . . . . . / z 4 _.#.1.b+T.#@$@#@%@,+1._ ( % z + . . . . . . . . .   ",
"  . . . . . . . . . . . . / z % &@_.( *@,.( ( _.@.% # + . . . . . . . . . . .   ",
"  . . . . . . . . . . . . . . . + + + # + # + + . + . . . . . . . . . . . . .   ",
"  . . . . . . . . . . . . . . . . . . . . . . . . . . . . . . . . . . . . . .   ",
"                                                                                "};
