/* XPM */
static char * E_xpm[] = {
"40 40 16 1",
" 	c #0E1311",
".	c #003D21",
"+	c #648576",
"@	c #B0BBB6",
"#	c #7D978B",
"$	c #0D462B",
"%	c #4B7361",
"&	c #8AA197",
"*	c #194F37",
"=	c #255842",
"-	c #577C6B",
";	c #0D462C",
">	c #194F36",
",	c #718E80",
"'	c #A4B3AC",
")	c #B0BCB6",
"                                        ",
" ...................................... ",
" ...................................... ",
" ...................................... ",
" ...................................... ",
" ...................................... ",
" ...................................... ",
" ...................................... ",
" ...................................... ",
" ...................................... ",
" ...................................... ",
" ...................................... ",
" ...................................... ",
" ...................................... ",
" ...............+@@@@@@#$.............. ",
" ..............%&*****=&-.............. ",
" ..............++......++.............. ",
" ..............++......++.............. ",
" ..............++......++.............. ",
" ..............++....%.++.............. ",
" ..............++...;%.++.............. ",
" ..............++......++.............. ",
" ..............++......++.............. ",
" ..............++......++.............. ",
" ............>>,,>>>>>>,,>>............ ",
" ...........;')))))))))))))$........... ",
" ...................................... ",
" ...................................... ",
" ...................................... ",
" ...................................... ",
" ...................................... ",
" ...................................... ",
" ...................................... ",
" ...................................... ",
" ...................................... ",
" ...................................... ",
" ...................................... ",
" ...................................... ",
" ...................................... ",
"                                        "};
