/* XPM */
static char *_82118af684e4695935098a5cd14accc2bf0xp0mb3zvsy8N[] = {
/* columns rows colors chars-per-pixel */
"32 32 241 2 ",
"   c black",
".  c #6AF572",
"X  c #5BF26E",
"o  c #5DF474",
"O  c #61F577",
"+  c #65F77E",
"@  c #68F881",
"#  c #6FF98A",
"$  c #78FB98",
"%  c #80FCA4",
"&  c #80FCA1",
"*  c #79FB99",
"=  c #6FFA8E",
"-  c #67F880",
";  c #65F67E",
":  c #60F576",
">  c #5CF473",
",  c #58F26B",
"<  c #54F064",
"1  c #52F062",
"2  c #51F061",
"3  c #50EF60",
"4  c #50F060",
"5  c #67F36F",
"6  c #68F470",
"7  c #14C655",
"8  c #07A155",
"9  c #0CA65D",
"0  c #13B071",
"q  c #1ABD83",
"w  c #23C996",
"e  c #2AD3A7",
"r  c #32DCB8",
"t  c #35E0C0",
"y  c #36E0C0",
"u  c #2BD5A9",
"i  c #1CBD84",
"p  c #14B273",
"a  c #0DA762",
"s  c #079E53",
"d  c #04984B",
"f  c #029344",
"g  c #019240",
"h  c #01913F",
"j  c #01903F",
"k  c #019441",
"l  c #14C554",
"z  c #6BF573",
"x  c #55F061",
"c  c #039646",
"v  c #02522C",
"b  c #055133",
"n  c #095C3F",
"m  c #0D694F",
"M  c #10745C",
"N  c #147E68",
"B  c #178674",
"V  c #178B78",
"C  c #188B78",
"Z  c #178775",
"A  c #157F6B",
"S  c #10755D",
"D  c #0C694F",
"F  c #095D41",
"G  c #055233",
"H  c #034928",
"J  c #014321",
"K  c #01401F",
"L  c #013F1D",
"P  c #003F1D",
"I  c #00401D",
"U  c #015029",
"Y  c #059D4E",
"T  c #58F16B",
"R  c #55F165",
"E  c #029040",
"W  c #012D13",
"Q  c #012E13",
"!  c #03321A",
"~  c #04371F",
"^  c #053B23",
"/  c #064029",
"(  c #054129",
")  c #06422A",
"_  c #063F28",
"`  c #053C25",
"'  c #022F15",
"]  c #002A0F",
"[  c #00290F",
"{  c #002C11",
"}  c #044C2C",
"|  c #0AA25A",
" . c #59F16C",
".. c #55EF61",
"X. c #003E1C",
"o. c #00280D",
"O. c #012C13",
"+. c #065638",
"@. c #10AC6A",
"#. c #5CF373",
"$. c #028F3F",
"%. c #0A6245",
"&. c #16B77A",
"*. c #61F57B",
"=. c #54F164",
"-. c #03341C",
";. c #0E6E55",
":. c #1EC38C",
">. c #66F77F",
",. c #53F163",
"<. c #04381F",
"1. c #137A64",
"2. c #25CE9A",
"3. c #6AF986",
"4. c #053D24",
"5. c #15836E",
"6. c #2ED7AF",
"7. c #73FB94",
"8. c #53F063",
"9. c #039144",
"0. c #01280F",
"q. c #053F26",
"w. c #188976",
"e. c #33DEBA",
"r. c #7CFC9E",
"t. c #064129",
"y. c #82FDA6",
"u. c #029244",
"i. c #002B11",
"p. c #054027",
"a. c #178875",
"s. c #34DEBE",
"d. c #7DFC9F",
"f. c #57F167",
"g. c #039445",
"h. c #014120",
"j. c #053D25",
"k. c #16836E",
"l. c #2ED8B0",
"z. c #74FA92",
"x. c #07994D",
"c. c #014624",
"v. c #053922",
"b. c #26CF9F",
"n. c #6BF987",
"m. c #5DF370",
"M. c #0AA15A",
"N. c #034D2C",
"B. c #04351D",
"V. c #0F7057",
"C. c #1FC48D",
"Z. c #67F780",
"A. c #11AC6A",
"S. c #065839",
"D. c #023017",
"F. c #0A6346",
"G. c #17B97C",
"H. c #63F679",
"J. c #17B77A",
"K. c #023117",
"L. c #065738",
"P. c #5FF375",
"I. c #69F782",
"U. c #1FC38D",
"Y. c #0F6F56",
"T. c #5CF26F",
"R. c #6DF888",
"E. c #137963",
"W. c #024624",
"Q. c #069B4E",
"!. c #75FA92",
"~. c #2FD9B1",
"^. c #063D26",
"/. c #039546",
"(. c #56F066",
"). c #7DFC9C",
"_. c #35DFBF",
"`. c #178976",
"'. c #01401E",
"]. c #82FCA3",
"[. c #37E0C0",
"{. c #52F05F",
"}. c #003F1B",
"|. c #053E26",
" X c #6CF988",
".X c #127A64",
"XX c #053A22",
"oX c #66F87F",
"OX c #1FC28C",
"+X c #03351C",
"@X c #63F67D",
"#X c #17B67A",
"$X c #53F05F",
"%X c #5EF575",
"&X c #11AB6A",
"*X c #54EF60",
"=X c #044D2E",
"-X c #04361E",
";X c #03361D",
":X c #54F060",
">X c #5AF26D",
",X c #059C4E",
"<X c #014220",
"1X c #024827",
"2X c #065334",
"3X c #0D6B50",
"4X c #147F68",
"5X c #178B7B",
"6X c #10735C",
"7X c #0D684E",
"8X c #045130",
"9X c #02532D",
"0X c #029746",
"qX c #6EF572",
"wX c #14C454",
"eX c #019541",
"rX c #018F3F",
"tX c #039747",
"yX c #079D53",
"uX c #14B071",
"iX c #1BBE84",
"pX c #22C996",
"aX c #2BD4A8",
"sX c #31DBB7",
"dX c #2AD4A8",
"fX c #22C895",
"gX c #1ABC83",
"hX c #0DA661",
"jX c #15C655",
"kX c #70F471",
"lX c #4FF060",
"zX c #4FEF5F",
"xX c #51F161",
"cX c #64F77E",
"vX c #66F980",
"bX c #79FC99",
"nX c #77FA97",
"mX c #6EFA8A",
"MX c #5FF576",
"NX c #59F36C",
"BX c #6DF575",
/* pixels */
"  . X o O + @ # $ % & * = - ; : > , < 1 2 3 3 4 4 2 2 2 2 2 5   ",
"6 7 8 9 0 q w e r t y r u w i p a s d f g h h h h j h h j k l z ",
"x c v b n m M N B V C Z A S D F G H J K K L P P L P P P I U Y T ",
"R E K W Q ! ~ ^ / ( ) _ ` ~ ! ' ] [ [ [ [ [ [ [ [ [ [ [ { } |  .",
"..E X.] o.o.o.o.[ [ [ [ o.o.o.o.o.o.o.o.o.o.o.o.o.o.o.o.O.+.@.#.",
"x $.P ] o.o.o.o.o.o.o.o.o.o.o.o.o.o.o.o.o.o.o.o.o.o.o.o.' %.&.*.",
"=.$.I [ o.o.o.o.o.o.o.o.o.o.o.o.o.o.o.o.o.o.o.o.o.o.o.o.-.;.:.>.",
",.$.I ] o.o.o.o.o.o.o.o.o.o.o.o.o.o.o.o.o.o.o.o.o.o.o.[ <.1.2.3.",
",.$.I ] o.o.o.o.o.o.o.o.o.o.o.o.o.o.o.o.o.o.o.o.o.o.o.[ 4.5.6.7.",
"8.9.X.] o.o.o.o.o.o.o.o.o.o.o.o.o.o.o.o.o.o.o.o.o.o.o.0.q.w.e.r.",
"8.9.X.] o.o.o.o.o.o.o.o.o.o.o.o.o.o.o.o.o.o.o.o.o.o.o.0.t.C y y.",
"< u.P i.o.o.o.o.o.o.o.o.o.o.o.o.o.o.o.o.o.o.o.o.o.o.o.[ p.a.s.d.",
"f.g.h.] o.o.o.o.o.o.o.o.o.o.o.o.o.o.o.o.o.o.o.o.o.o.o.[ j.k.l.z.",
"X x.c.] o.o.o.o.o.o.o.o.o.o.o.o.o.o.o.o.o.o.o.o.o.o.o.] v.1.b.n.",
"m.M.N.i.o.o.o.o.o.o.o.o.o.o.o.o.o.o.o.o.o.o.o.o.o.o.o.[ B.V.C.Z.",
": A.S.W o.o.o.o.o.o.o.o.o.o.o.o.o.o.o.o.o.o.o.o.o.o.o.o.D.F.G.O ",
"H.J.%.K.o.o.o.o.o.o.o.o.o.o.o.o.o.o.o.o.o.o.o.o.o.o.o.o.W L.@.P.",
"I.U.Y.B.o.o.o.o.o.o.o.o.o.o.o.o.o.o.o.o.o.o.o.o.o.o.o.o.] } | T.",
"R.b.E.v.o.o.o.o.o.o.o.o.o.o.o.o.o.o.o.o.o.o.o.o.o.o.o.o.[ W.Q. .",
"!.~.k.^.o.o.o.o.o.o.o.o.o.o.o.o.o.o.o.o.o.o.o.o.o.o.o.o.[ h./.(.",
")._.`.t.[ o.o.o.o.o.o.o.o.o.o.o.o.o.o.o.o.o.o.o.o.o.o.o.[ '.g < ",
"].[.C ) o.o.o.o.o.o.o.o.o.o.o.o.o.o.o.o.o.o.o.o.o.o.o.o.[ I h {.",
").s.`.t.o.o.o.o.o.o.o.o.o.o.o.o.o.o.o.o.o.o.o.o.o.o.o.o.[ }.h {.",
"!.l.5.|.[ o.o.o.o.o.o.o.o.o.o.o.o.o.o.o.o.o.o.o.o.o.o.o.[ K h 8.",
" Xb..XXXo.o.o.o.o.o.o.o.o.o.o.o.o.o.o.o.o.o.o.o.o.o.o.o.[ K h 8.",
"oXOX;.+Xo.o.o.o.o.o.o.o.o.o.o.o.o.o.o.o.o.o.o.o.o.o.o.o.[ I j ,.",
"@X#X%.D.o.o.o.o.o.o.o.o.o.o.o.o.o.o.o.o.o.o.o.o.o.o.o.o.[ I E $X",
"%X&XL.W o.o.o.o.o.o.o.o.o.o.o.o.o.o.o.o.[ [ [ [ o.o.o.o.[ P E *X",
"X M.=X{ [ [ [ [ [ [ [ [ [ [ [ O.Q ! -X^ _ t.t.q.^ ;X! Q i.K h :X",
">X,XU K L L L L P P P P P <X1X2XF 3XS 4XZ V 5XB N 6X7Xn 8X9X0Xx ",
"qXwXeXh rXrXrXrXrXj j j g tXyXa uXiXpXaXr t t sXdXfXgXuXhX8 jXkX",
"  . lXlX3 zXzXzXzX4 4 4 4 xX, > %XcXvX= bX& % nXmX- @XMX> NXBX  "
};
