/* XPM */
static char * EO_xpm[] = {
"40 40 27 1",
" 	c #54FF03",
".	c #42FF00",
"+	c #3EEF00",
"@	c #32C000",
"#	c #1D7000",
"$	c #114000",
"%	c #0C3000",
"&	c #218000",
"*	c #145000",
"=	c #000000",
"-	c #196000",
";	c #29A000",
">	c #104000",
",	c #31BF00",
"'	c #299F00",
")	c #259000",
"!	c #35CF00",
"~	c #3ADF00",
"{	c #041000",
"]	c #208000",
"^	c #082000",
"/	c #3AE000",
"(	c #258F00",
"_	c #2DAF00",
":	c #36CF00",
"<	c #2DB000",
"[	c #39DF00",
"                                        ",
" ...................................... ",
" ...................................... ",
" ...................................... ",
" ...................................... ",
" ...................................... ",
" ...................................... ",
" ...................................... ",
" ...................................... ",
" ...................................... ",
" ...................................... ",
" ...................................... ",
" ..............+@#$%&.................. ",
" ............+*======$--;.............. ",
" ............-==>#,'=====)............. ",
" ............%=!...~={']={............. ",
" ............^=/...~=^..==............. ",
" ............^=/...~=^..==............. ",
" ............^=/...~=^..==............. ",
" ............^=/...~=^..==............. ",
" ............^=/.(^_=^..==............. ",
" ............^=/.({,=^..==............. ",
" ............^=/...~=^..==............. ",
" ............^=/...~=^..==............. ",
" ............^=/...~=^..==............. ",
" ............^=/...~=^..==............. ",
" ..........@;{=:...~={;;==;;<.......... ",
" .........<=====$#@:=========!......... ",
" .........+#-->======^-------[......... ",
" ..............+,#>={_................. ",
" ..................++.................. ",
" ...................................... ",
" ...................................... ",
" ...................................... ",
" ...................................... ",
" ...................................... ",
" ...................................... ",
" ...................................... ",
" ...................................... ",
"                                        "};
