/* XPM */
static char * I_xpm[] = {
"40 40 26 1",
" 	c #000000",
".	c #A80000",
"+	c #BD4040",
"@	c #DE9F9F",
"#	c #F4DFDF",
"$	c #FFFFFF",
"%	c #EECFCF",
"&	c #C25050",
"*	c #B32020",
"=	c #E9BFBF",
"-	c #B93030",
";	c #FAEFEF",
">	c #D48080",
",	c #C96060",
"'	c #F9EFEF",
")	c #B83030",
"!	c #DFA0A0",
"~	c #AD1010",
"{	c #AE1010",
"]	c #D99090",
"^	c #C35050",
"/	c #BE4040",
"(	c #DEA0A0",
"_	c #C86060",
":	c #D38080",
"<	c #EFCFCF",
"                                        ",
" ...................................... ",
" ...................................... ",
" ...................................... ",
" ...................................... ",
" ...................................... ",
" ...................................... ",
" ...................................... ",
" ...................................... ",
" ...............+@#$$%@&............... ",
" .............*=$$$$$$$$#*............. ",
" ............-;$;>*..-,#$')............ ",
" ...........*;$!~......{]$'*........... ",
" ...........#$]..........!$=........... ",
" ..........^$#~..........{;$/.......... ",
" ..........($_............:$@.......... ",
" ..........<$)............*$#.......... ",
" ..........$$...##....##...$$.......... ",
" ..........$$...##....##...$$.......... ",
" ..........$$..............$$.......... ",
" ..........$$..............$$.......... ",
" ..........$$..............$$.......... ",
" ..........$$..............$$.......... ",
" ..........$$..............$$.......... ",
" ..........$$..............$$.......... ",
" ..........$$..............$$.......... ",
" ..........$$*##*.*##*.*##*$$.......... ",
" ..........$$#$$#+#$$#+#$$#$$.......... ",
" ..........$$$##$$$##$$$##$$$.......... ",
" ..........$$#**#$#**#$#**#$$.......... ",
" ..........##*..*:*..*:*..*##.......... ",
" ...................................... ",
" ...................................... ",
" ...................................... ",
" ...................................... ",
" ...................................... ",
" ...................................... ",
" ...................................... ",
" ...................................... ",
"                                        "};
