/* XPM */
static char *dd47c462b3854f92d55808347b7078d7UrTt4owfQpl8lxKf[] = {
/* columns rows colors chars-per-pixel */
"32 32 221 2 ",
"   c black",
".  c #EC4887",
"X  c #EB3971",
"o  c #ED3B6F",
"O  c #ED3F72",
"+  c #EF4271",
"@  c #EF4573",
"#  c #EF4C74",
"$  c #F05574",
"%  c #F05D74",
"&  c #F05D77",
"*  c #F05675",
"=  c #F04C71",
"-  c #F04472",
";  c #EE4371",
":  c #EE3E71",
">  c #ED3A6E",
",  c #EC366F",
"<  c #EA3270",
"1  c #EA306F",
"2  c #EB2F6F",
"3  c #EA2E6E",
"4  c #EB2E6E",
"5  c #EA4585",
"6  c #EB4686",
"7  c #BF000A",
"8  c #930C00",
"9  c #9C0D00",
"0  c #AB1A00",
"q  c #BD2600",
"w  c #C93605",
"e  c #D3460B",
"r  c #DB5712",
"t  c #DE6314",
"y  c #DE5F15",
"u  c #D54C0C",
"i  c #BE2600",
"p  c #AE1F00",
"a  c #9E1100",
"s  c #910800",
"d  c #890500",
"f  c #830100",
"g  c #810001",
"h  c #800001",
"j  c #7F0001",
"k  c #BE000F",
"l  c #EC4988",
"z  c #EA3375",
"x  c #860100",
"c  c #490600",
"v  c #4B0D00",
"b  c #581400",
"n  c #671C00",
"m  c #742500",
"M  c #7E2F01",
"N  c #863903",
"B  c #8B3B02",
"V  c #8B3803",
"C  c #873A03",
"Z  c #7F3002",
"A  c #752500",
"S  c #661E00",
"D  c #591400",
"F  c #4C0B00",
"G  c #420500",
"H  c #3B0300",
"J  c #390200",
"K  c #380000",
"L  c #370200",
"P  c #470600",
"I  c #8E0500",
"U  c #EB366F",
"Y  c #EB3371",
"T  c #800100",
"R  c #280001",
"E  c #290001",
"W  c #2E0200",
"Q  c #330400",
"!  c #380700",
"~  c #3D0A00",
"^  c #3F0B00",
"/  c #3C0900",
"(  c #390800",
")  c #2B0000",
"_  c #240002",
"`  c #260002",
"'  c #460900",
"]  c #970C00",
"[  c #EA3770",
"{  c #E93375",
"}  c #360000",
"|  c #230003",
" . c #270000",
".. c #501000",
"X. c #A51900",
"o. c #EC3A6E",
"O. c #5F1500",
"+. c #B42000",
"@. c #ED3F6E",
"#. c #EB3271",
"$. c #300400",
"%. c #6D2000",
"&. c #C42D01",
"*. c #EF4371",
"=. c #EB3170",
"-. c #340400",
";. c #7A2A01",
":. c #CE3807",
">. c #F04771",
",. c #3A0700",
"<. c #833101",
"1. c #D64E0F",
"2. c #F15070",
"3. c #EA3170",
"4. c #820100",
"5. c #3B0700",
"6. c #893804",
"7. c #DD5D13",
"8. c #F15974",
"9. c #3E0900",
"0. c #F15F75",
"q. c #250001",
"w. c #3C0700",
"e. c #883703",
"r. c #DC5D14",
"t. c #F05A75",
"y. c #EB3573",
"u. c #840100",
"i. c #3A0300",
"p. c #833202",
"a. c #D7530E",
"s. c #F05171",
"d. c #8C0500",
"f. c #3E0500",
"g. c #360700",
"h. c #CF3E08",
"j. c #F04871",
"k. c #EC3B73",
"l. c #961000",
"z. c #320400",
"x. c #6F2300",
"c. c #C52E02",
"v. c #EF4472",
"b. c #A61500",
"n. c #520E00",
"m. c #2C0000",
"M. c #5F1700",
"N. c #B72000",
"B. c #EE4173",
"V. c #B52000",
"C. c #510E00",
"Z. c #EC3D70",
"A. c #EE4774",
"S. c #C43202",
"D. c #6E2000",
"F. c #EB3A72",
"G. c #EF4B73",
"H. c #792A01",
"J. c #3F0300",
"K. c #8D0800",
"L. c #F05275",
"P. c #D8540F",
"I. c #3A0900",
"U. c #850400",
"Y. c #EA3472",
"T. c #F05A78",
"R. c #DD5E15",
"E. c #893703",
"W. c #F06079",
"Q. c #DE6016",
"!. c #EA3074",
"~. c #370000",
"^. c #F04972",
"/. c #7A2D00",
"(. c #370500",
"). c #F04372",
"_. c #C32E02",
"`. c #310200",
"'. c #EE416B",
"]. c #EA3174",
"[. c #EE3C70",
"{. c #E93274",
"}. c #470900",
"|. c #EA3275",
" X c #EB3871",
".X c #3A0200",
"XX c #410500",
"oX c #4E0C00",
"OX c #691C00",
"+X c #7F2C01",
"@X c #8B3E02",
"#X c #732700",
"$X c #661C00",
"%X c #4A0900",
"&X c #4A0800",
"*X c #EB4C8D",
"=X c #840001",
"-X c #7E0100",
";X c #870500",
":X c #900C00",
">X c #AC1A00",
",X c #C93A04",
"<X c #D3470C",
"1X c #DA5611",
"2X c #D44B0B",
"3X c #C83504",
"4X c #BC2A00",
"5X c #9D1000",
"6X c #C0000F",
"7X c #EA4E92",
"8X c #EB2D6D",
"9X c #EA2D6D",
"0X c #EC2F6F",
"qX c #EF416C",
"wX c #F1436E",
"eX c #F15675",
"rX c #EF5573",
"tX c #F14B74",
"yX c #EE3D6C",
"uX c #EC3770",
"iX c #EC4B89",
/* pixels */
"  . X o O + @ # $ % & * = - ; : > , < 1 2 3 3 4 4 2 2 2 2 2 5   ",
"6 7 8 9 0 q w e r t y r u w i p a s d f g h h h h j h h j f k l ",
"z x c v b n m M N B V C Z A S D F G H J J K L L K L L L K P I U ",
"Y T J R E W Q ! ~ ~ ^ / ( Q W ) _ _ _ _ _ _ _ _ _ _ _ _ ` ' ] [ ",
"{ T } _ | | | | _ _ _ _ | | | | | | | | | | | | | | | |  ...X.o.",
"z j L _ | | | | | | | | | | | | | | | | | | | | | | | | ) O.+.@.",
"#.j K _ | | | | | | | | | | | | | | | | | | | | | | | | $.%.&.*.",
"=.j K _ | | | | | | | | | | | | | | | | | | | | | | | _ -.;.:.>.",
"=.j K _ | | | | | | | | | | | | | | | | | | | | | | | _ ,.<.1.2.",
"3.4.} _ | | | | | | | | | | | | | | | | | | | | | | | _ 5.6.7.8.",
"3.4.} _ | | | | | | | | | | | | | | | | | | | | | | | _ 9.V y 0.",
"< 4.L q.| | | | | | | | | | | | | | | | | | | | | | | _ w.e.r.t.",
"y.u.i._ | | | | | | | | | | | | | | | | | | | | | | | _ ,.p.a.s.",
"X d.f._ | | | | | | | | | | | | | | | | | | | | | | | _ g.;.h.j.",
"k.l.' q.| | | | | | | | | | | | | | | | | | | | | | | _ z.x.c.v.",
": b.n.R | | | | | | | | | | | | | | | | | | | | | | | | m.M.N.O ",
"B.V.O.m.| | | | | | | | | | | | | | | | | | | | | | | | R C.X.Z.",
"A.S.D.z.| | | | | | | | | | | | | | | | | | | | | | | | _ ' ] F.",
"G.h.H.g.| | | | | | | | | | | | | | | | | | | | | | | | _ J.K.[ ",
"L.P.p.I.| | | | | | | | | | | | | | | | | | | | | | | | _ i.U.Y.",
"T.R.E.9._ | | | | | | | | | | | | | | | | | | | | | | | _ J g < ",
"W.Q.V ^ | | | | | | | | | | | | | | | | | | | | | | | | _ K h !.",
"T.r.E.9.| | | | | | | | | | | | | | | | | | | | | | | | _ ~.h !.",
"L.a.<.I._ | | | | | | | | | | | | | | | | | | | | | | | _ J h 3.",
"^.h./.(.| | | | | | | | | | | | | | | | | | | | | | | | _ J h 3.",
")._.%.`.| | | | | | | | | | | | | | | | | | | | | | | | _ K j =.",
"'.+.O.m.| | | | | | | | | | | | | | | | | | | | | | | | _ K T ].",
"[.X.C.R | | | | | | | | | | | | | | | | _ _ _ _ | | | | _ L T {.",
"X l.}.` _ _ _ _ _ _ _ _ _ _ _  .E W Q ! / 9.9.5.! z.W E q.J h |.",
" XK.P J K K K K L L L L L .XXXoXD OXA +XC B @XN M #X$Xb %X&Xx z ",
"*Xk =Xh -X-X-X-X-Xj j j g ;X:Xa >Xi ,X<Xr t t 1X2X3X4X>X5X8 6X7X",
"  . 8X8X3 9X9X9X9X4 4 4 4 0X, > [.qXwX= eX& % rXtX- '.yX> uXiX  "
};
