/* XPM */
static char * btn_play_xpm[] = {
"170 44 48 1",
" 	c #191B1A",
".	c #161F1B",
"+	c #06341F",
"@	c #013B20",
"#	c #003D21",
"$	c #08321E",
"%	c #023B20",
"&	c #07331F",
"*	c #608574",
"=	c #9FB6AC",
"-	c #90AA9D",
";	c #20553C",
">	c #406D58",
",	c #507966",
"'	c #10492E",
")	c #6F9181",
"!	c #A0B6AC",
"~	c #EFF3F1",
"{	c #A0B7AC",
"]	c #C0CFC8",
"^	c #FFFFFF",
"/	c #709182",
"(	c #608674",
"_	c #DFE6E3",
":	c #709282",
"<	c #7F9D90",
"[	c #DFE7E3",
"}	c #20553D",
"|	c #90AA9E",
"1	c #406D59",
"2	c #AFC2BA",
"3	c #BFCEC7",
"4	c #BFCEC8",
"5	c #406E58",
"6	c #A0B6AB",
"7	c #CFDBD5",
"8	c #30614A",
"9	c #809E8F",
"0	c #809E90",
"a	c #10492F",
"b	c #8FAA9D",
"c	c #B0C2B9",
"d	c #C0CFC7",
"e	c #406E59",
"f	c #E0E7E3",
"g	c #507A66",
"h	c #07331E",
"i	c #06351F",
" .+@###################################################################################################################################################################$. ",
".@######################################################################################################################################################################%.",
"&########################################################################################################################################################################+",
"#########################################################################################################################################################################%",
"##########################################################################################################################################################################",
"##########################################################################################################################################################################",
"##########################################################################################################################################################################",
"##########################################################################################################################################################################",
"##########################################################################################################################################################################",
"##########################################################################################################################################################################",
"##########################################################################################################################################################################",
"##########################################################################################################################################################################",
"##########################################################################################################################################################################",
"##########################################################################################################################################################################",
"##########################################################################################################################################################################",
"##########################################################################################################################################################################",
"#################################################################*====-;###>=###########,='###-)#####;=,##################################################################",
"#################################################################!~{{{]^/##(^###########_^:###:^>####<[}##################################################################",
"#################################################################![####|~'#(^##########1^23####43###;^:###################################################################",
"#################################################################![####}^5#(^##########671^>###}^/##2[####################################################################",
"#################################################################![####8^5#(^##########_(#79####0~'*^}####################################################################",
"#################################################################![####<^'#(^#########,^}#0~####a[b_=#####################################################################",
"#################################################################!~0003^9##(^#########cd##}^>####1^[}#####################################################################",
"#################################################################!^]]]{e###(^########;^3000~=#####f0######################################################################",
"#################################################################![########(^########*^]]]]7~'####f0######################################################################",
"#################################################################![########(^########4=####a^:####f0######################################################################",
"#################################################################![########(^>>>>>;#;^g#####43####f0######################################################################",
"#################################################################![########(^^^^^^(#|[######(^'###f0######################################################################",
"##########################################################################################################################################################################",
"##########################################################################################################################################################################",
"##########################################################################################################################################################################",
"##########################################################################################################################################################################",
"##########################################################################################################################################################################",
"##########################################################################################################################################################################",
"##########################################################################################################################################################################",
"##########################################################################################################################################################################",
"##########################################################################################################################################################################",
"##########################################################################################################################################################################",
"##########################################################################################################################################################################",
"##########################################################################################################################################################################",
"@#########################################################################################################################################################################",
"+########################################################################################################################################################################$",
".@######################################################################################################################################################################@.",
" .h###################################################################################################################################################################@i. "};
