/* XPM */
static char * btn_map_xpm[] = {
"170 44 48 1",
" 	c #191B1A",
".	c #161F1B",
"+	c #06341F",
"@	c #013B20",
"#	c #003D21",
"$	c #08321E",
"%	c #023B20",
"&	c #07331F",
"*	c #608574",
"=	c #9FB6AC",
"-	c #20553C",
";	c #8FAA9E",
">	c #507966",
",	c #90AA9D",
"'	c #A0B6AC",
")	c #FFFFFF",
"!	c #809E8F",
"~	c #DFE7E3",
"{	c #809E90",
"]	c #BFCEC7",
"^	c #EFF3F1",
"/	c #A0B7AC",
"(	c #C0CFC8",
"_	c #709182",
":	c #10492E",
"<	c #BFCEC8",
"[	c #DFE6E3",
"}	c #AFC2BA",
"|	c #30614A",
"1	c #90AA9E",
"2	c #CFDBD5",
"3	c #709282",
"4	c #C0CFC7",
"5	c #406D59",
"6	c #20553D",
"7	c #E0E7E3",
"8	c #507A66",
"9	c #A0B6AB",
"0	c #10492F",
"a	c #406D58",
"b	c #608674",
"c	c #B0C2B9",
"d	c #406E59",
"e	c #D0DBD6",
"f	c #30614B",
"g	c #CFDAD5",
"h	c #07331E",
"i	c #06351F",
" .+@###################################################################################################################################################################$. ",
".@######################################################################################################################################################################%.",
"&########################################################################################################################################################################+",
"#########################################################################################################################################################################%",
"##########################################################################################################################################################################",
"##########################################################################################################################################################################",
"##########################################################################################################################################################################",
"##########################################################################################################################################################################",
"##########################################################################################################################################################################",
"##########################################################################################################################################################################",
"##########################################################################################################################################################################",
"##########################################################################################################################################################################",
"##########################################################################################################################################################################",
"##########################################################################################################################################################################",
"##########################################################################################################################################################################",
"##########################################################################################################################################################################",
"#################################################################*=-#######=;#####-=>#####>====,-#########################################################################",
"#################################################################')!######*)~#####{)]#####{^///()_########################################################################",
"#################################################################')^:#####<)~#####[})|####{~####1^:#######################################################################",
"#################################################################'2^3####-)4~####5)67!####{~####6)8#######################################################################",
"#################################################################'41]####9~{~####94#{^####{~####0)8#######################################################################",
"#################################################################'45)a###[b{~####[b#6)a###{~####_)6#######################################################################",
"#################################################################'4#<,##*^6{~###*)6##<,###{^{{{})!########################################################################",
"#################################################################'4#3^:#<=#{~###c~{{{]^:##{)(((/d#########################################################################",
"#################################################################'4#0^3|)6#{~##-)e(((()b##{~##############################################################################",
"#################################################################'4##{]94##{~##*):####<]##{~##############################################################################",
"#################################################################'4##f))b##{~##g=#####b):#{~##############################################################################",
"#################################################################'4###<~###{~#-)8#####0^!#{~##############################################################################",
"##########################################################################################################################################################################",
"##########################################################################################################################################################################",
"##########################################################################################################################################################################",
"##########################################################################################################################################################################",
"##########################################################################################################################################################################",
"##########################################################################################################################################################################",
"##########################################################################################################################################################################",
"##########################################################################################################################################################################",
"##########################################################################################################################################################################",
"##########################################################################################################################################################################",
"##########################################################################################################################################################################",
"##########################################################################################################################################################################",
"@#########################################################################################################################################################################",
"+########################################################################################################################################################################$",
".@######################################################################################################################################################################@.",
" .h###################################################################################################################################################################@i. "};
