/* XPM */
static char * e_active_xpm[] = {
"170 44 55 1",
" 	c #191B1A",
".	c #18261A",
"+	c #155E18",
"@	c #146F18",
"#	c #137517",
"$	c #155818",
"%	c #136F17",
"&	c #145918",
"*	c #0C601A",
"=	c #014120",
"-	c #003D21",
";	c #03441F",
">	c #034420",
",	c #608574",
"'	c #9FB6AC",
")	c #406D58",
"!	c #7F9E8F",
"~	c #809E8F",
"{	c #507966",
"]	c #30614A",
"^	c #10492F",
"/	c #A0B6AC",
"(	c #EFF3F1",
"_	c #A0B7AC",
":	c #406E58",
"<	c #406D59",
"[	c #FFFFFF",
"}	c #20553C",
"|	c #DFE6E3",
"1	c #BFCEC8",
"2	c #CFDBD5",
"3	c #507A66",
"4	c #DFE7E3",
"5	c #90AA9E",
"6	c #10492E",
"7	c #8FA99D",
"8	c #20553D",
"9	c #809E90",
"0	c #8FAA9D",
"a	c #709282",
"b	c #EFF2F1",
"c	c #C0CFC8",
"d	c #90AA9D",
"e	c #BFCEC7",
"f	c #30624B",
"g	c #CFDAD5",
"h	c #709182",
"i	c #A0B6AB",
"j	c #02441F",
"k	c #145F18",
"l	c #024420",
"m	c #182619",
"n	c #137017",
"o	c #155917",
"p	c #145F17",
" .+@###################################################################################################################################################################$. ",
".@######################################################################################################################################################################%.",
"&#*=------------------------------------------------------------------------------------------------------------------------------------------------------------------;*#+",
"##>--------------------------------------------------------------------------------------------------------------------------------------------------------------------=#%",
"##----------------------------------------------------------------------------------------------------------------------------------------------------------------------##",
"##----------------------------------------------------------------------------------------------------------------------------------------------------------------------##",
"##----------------------------------------------------------------------------------------------------------------------------------------------------------------------##",
"##----------------------------------------------------------------------------------------------------------------------------------------------------------------------##",
"##----------------------------------------------------------------------------------------------------------------------------------------------------------------------##",
"##----------------------------------------------------------------------------------------------------------------------------------------------------------------------##",
"##----------------------------------------------------------------------------------------------------------------------------------------------------------------------##",
"##----------------------------------------------------------------------------------------------------------------------------------------------------------------------##",
"##----------------------------------------------------------------------------------------------------------------------------------------------------------------------##",
"##----------------------------------------------------------------------------------------------------------------------------------------------------------------------##",
"##----------------------------------------------------------------------------------------------------------------------------------------------------------------------##",
"##----------------------------------------------------------------------------------------------------------------------------------------------------------------------##",
"##----------------------------------------------------------------,'''''')-!~-----{']-!,-^''''''''{---------------------------------------------------------------------##",
"##----------------------------------------------------------------/(_____:-<[,---}|'--1'-^___2(___3---------------------------------------------------------------------##",
"##----------------------------------------------------------------/4--------5(6--7(8--1'-----94-------------------------------------------------------------------------##",
"##----------------------------------------------------------------/4--------^(0-}[a---1'-----94-------------------------------------------------------------------------##",
"##----------------------------------------------------------------/4---------{[)|4----1'-----94-------------------------------------------------------------------------##",
"##----------------------------------------------------------------/(999996----1b[8----1'-----94-------------------------------------------------------------------------##",
"##----------------------------------------------------------------/[ccccc6----0[(6----1'-----94-------------------------------------------------------------------------##",
"##----------------------------------------------------------------/4---------}[d(0----1'-----94-------------------------------------------------------------------------##",
"##----------------------------------------------------------------/4---------e4-9[)---1'-----94-------------------------------------------------------------------------##",
"##----------------------------------------------------------------/4--------,[f--gg---1'-----94-------------------------------------------------------------------------##",
"##----------------------------------------------------------------/4)))))}-}|'---<[h--1'-----94-------------------------------------------------------------------------##",
"##----------------------------------------------------------------/[[[[[[9-i48----5(}-1'-----94-------------------------------------------------------------------------##",
"##----------------------------------------------------------------------------------------------------------------------------------------------------------------------##",
"##----------------------------------------------------------------------------------------------------------------------------------------------------------------------##",
"##----------------------------------------------------------------------------------------------------------------------------------------------------------------------##",
"##----------------------------------------------------------------------------------------------------------------------------------------------------------------------##",
"##----------------------------------------------------------------------------------------------------------------------------------------------------------------------##",
"##----------------------------------------------------------------------------------------------------------------------------------------------------------------------##",
"##----------------------------------------------------------------------------------------------------------------------------------------------------------------------##",
"##----------------------------------------------------------------------------------------------------------------------------------------------------------------------##",
"##----------------------------------------------------------------------------------------------------------------------------------------------------------------------##",
"##----------------------------------------------------------------------------------------------------------------------------------------------------------------------##",
"##----------------------------------------------------------------------------------------------------------------------------------------------------------------------##",
"##----------------------------------------------------------------------------------------------------------------------------------------------------------------------##",
"%#=--------------------------------------------------------------------------------------------------------------------------------------------------------------------j##",
"k#*l------------------------------------------------------------------------------------------------------------------------------------------------------------------=*#$",
"m%######################################################################################################################################################################nm",
" mo###################################################################################################################################################################npm "};
