/* XPM */
static char * m_active_xpm[] = {
"170 44 58 1",
" 	c #191B1A",
".	c #18261A",
"+	c #155E18",
"@	c #146F18",
"#	c #137517",
"$	c #155818",
"%	c #136F17",
"&	c #145918",
"*	c #0C601A",
"=	c #014120",
"-	c #003D21",
";	c #03441F",
">	c #034420",
",	c #608574",
"'	c #9FB6AC",
")	c #20553C",
"!	c #8FAA9E",
"~	c #507966",
"{	c #90AA9D",
"]	c #A0B6AC",
"^	c #FFFFFF",
"/	c #809E8F",
"(	c #DFE7E3",
"_	c #809E90",
":	c #BFCEC7",
"<	c #EFF3F1",
"[	c #A0B7AC",
"}	c #C0CFC8",
"|	c #709182",
"1	c #10492E",
"2	c #BFCEC8",
"3	c #DFE6E3",
"4	c #AFC2BA",
"5	c #30614A",
"6	c #90AA9E",
"7	c #CFDBD5",
"8	c #709282",
"9	c #C0CFC7",
"0	c #406D59",
"a	c #20553D",
"b	c #E0E7E3",
"c	c #507A66",
"d	c #A0B6AB",
"e	c #10492F",
"f	c #406D58",
"g	c #608674",
"h	c #B0C2B9",
"i	c #406E59",
"j	c #D0DBD6",
"k	c #30614B",
"l	c #CFDAD5",
"m	c #02441F",
"n	c #145F18",
"o	c #024420",
"p	c #182619",
"q	c #137017",
"r	c #155917",
"s	c #145F17",
" .+@###################################################################################################################################################################$. ",
".@######################################################################################################################################################################%.",
"&#*=------------------------------------------------------------------------------------------------------------------------------------------------------------------;*#+",
"##>--------------------------------------------------------------------------------------------------------------------------------------------------------------------=#%",
"##----------------------------------------------------------------------------------------------------------------------------------------------------------------------##",
"##----------------------------------------------------------------------------------------------------------------------------------------------------------------------##",
"##----------------------------------------------------------------------------------------------------------------------------------------------------------------------##",
"##----------------------------------------------------------------------------------------------------------------------------------------------------------------------##",
"##----------------------------------------------------------------------------------------------------------------------------------------------------------------------##",
"##----------------------------------------------------------------------------------------------------------------------------------------------------------------------##",
"##----------------------------------------------------------------------------------------------------------------------------------------------------------------------##",
"##----------------------------------------------------------------------------------------------------------------------------------------------------------------------##",
"##----------------------------------------------------------------------------------------------------------------------------------------------------------------------##",
"##----------------------------------------------------------------------------------------------------------------------------------------------------------------------##",
"##----------------------------------------------------------------------------------------------------------------------------------------------------------------------##",
"##----------------------------------------------------------------------------------------------------------------------------------------------------------------------##",
"##---------------------------------------------------------------,')-------'!-----)'~-----~''''{)-----------------------------------------------------------------------##",
"##---------------------------------------------------------------]^/------,^(-----_^:-----_<[[[}^|----------------------------------------------------------------------##",
"##---------------------------------------------------------------]^<1-----2^(-----34^5----_(----6<1---------------------------------------------------------------------##",
"##---------------------------------------------------------------]7<8----)^9(----0^ab/----_(----a^c---------------------------------------------------------------------##",
"##---------------------------------------------------------------]96:----d(_(----d9-_<----_(----e^c---------------------------------------------------------------------##",
"##---------------------------------------------------------------]90^f---3g_(----3g-a^f---_(----|^a---------------------------------------------------------------------##",
"##---------------------------------------------------------------]9-2{--,<a_(---,^a--2{---_<___4^/----------------------------------------------------------------------##",
"##---------------------------------------------------------------]9-8<1-2'-_(---h(___:<1--_^}}}[i-----------------------------------------------------------------------##",
"##---------------------------------------------------------------]9-e<85^a-_(--)^j}}}}^g--_(----------------------------------------------------------------------------##",
"##---------------------------------------------------------------]9--_:d9--_(--,^1----2:--_(----------------------------------------------------------------------------##",
"##---------------------------------------------------------------]9--k^^g--_(--l'-----g^1-_(----------------------------------------------------------------------------##",
"##---------------------------------------------------------------]9---2(---_(-)^c-----e</-_(----------------------------------------------------------------------------##",
"##----------------------------------------------------------------------------------------------------------------------------------------------------------------------##",
"##----------------------------------------------------------------------------------------------------------------------------------------------------------------------##",
"##----------------------------------------------------------------------------------------------------------------------------------------------------------------------##",
"##----------------------------------------------------------------------------------------------------------------------------------------------------------------------##",
"##----------------------------------------------------------------------------------------------------------------------------------------------------------------------##",
"##----------------------------------------------------------------------------------------------------------------------------------------------------------------------##",
"##----------------------------------------------------------------------------------------------------------------------------------------------------------------------##",
"##----------------------------------------------------------------------------------------------------------------------------------------------------------------------##",
"##----------------------------------------------------------------------------------------------------------------------------------------------------------------------##",
"##----------------------------------------------------------------------------------------------------------------------------------------------------------------------##",
"##----------------------------------------------------------------------------------------------------------------------------------------------------------------------##",
"##----------------------------------------------------------------------------------------------------------------------------------------------------------------------##",
"%#=--------------------------------------------------------------------------------------------------------------------------------------------------------------------m##",
"n#*o------------------------------------------------------------------------------------------------------------------------------------------------------------------=*#$",
"p%######################################################################################################################################################################qp",
" pr###################################################################################################################################################################qsp "};
