/* XPM */
static char * btn_play _active_xpm[] = {
"170 44 58 1",
" 	c #191B1A",
".	c #18261A",
"+	c #155E18",
"@	c #146F18",
"#	c #137517",
"$	c #155818",
"%	c #136F17",
"&	c #145918",
"*	c #0C601A",
"=	c #014120",
"-	c #003D21",
";	c #03441F",
">	c #034420",
",	c #608574",
"'	c #9FB6AC",
")	c #90AA9D",
"!	c #20553C",
"~	c #406D58",
"{	c #507966",
"]	c #10492E",
"^	c #6F9181",
"/	c #A0B6AC",
"(	c #EFF3F1",
"_	c #A0B7AC",
":	c #C0CFC8",
"<	c #FFFFFF",
"[	c #709182",
"}	c #608674",
"|	c #DFE6E3",
"1	c #709282",
"2	c #7F9D90",
"3	c #DFE7E3",
"4	c #20553D",
"5	c #90AA9E",
"6	c #406D59",
"7	c #AFC2BA",
"8	c #BFCEC7",
"9	c #BFCEC8",
"0	c #406E58",
"a	c #A0B6AB",
"b	c #CFDBD5",
"c	c #30614A",
"d	c #809E8F",
"e	c #809E90",
"f	c #10492F",
"g	c #8FAA9D",
"h	c #B0C2B9",
"i	c #C0CFC7",
"j	c #406E59",
"k	c #E0E7E3",
"l	c #507A66",
"m	c #02441F",
"n	c #145F18",
"o	c #024420",
"p	c #182619",
"q	c #137017",
"r	c #155917",
"s	c #145F17",
" .+@###################################################################################################################################################################$. ",
".@######################################################################################################################################################################%.",
"&#*=------------------------------------------------------------------------------------------------------------------------------------------------------------------;*#+",
"##>--------------------------------------------------------------------------------------------------------------------------------------------------------------------=#%",
"##----------------------------------------------------------------------------------------------------------------------------------------------------------------------##",
"##----------------------------------------------------------------------------------------------------------------------------------------------------------------------##",
"##----------------------------------------------------------------------------------------------------------------------------------------------------------------------##",
"##----------------------------------------------------------------------------------------------------------------------------------------------------------------------##",
"##----------------------------------------------------------------------------------------------------------------------------------------------------------------------##",
"##----------------------------------------------------------------------------------------------------------------------------------------------------------------------##",
"##----------------------------------------------------------------------------------------------------------------------------------------------------------------------##",
"##----------------------------------------------------------------------------------------------------------------------------------------------------------------------##",
"##----------------------------------------------------------------------------------------------------------------------------------------------------------------------##",
"##----------------------------------------------------------------------------------------------------------------------------------------------------------------------##",
"##----------------------------------------------------------------------------------------------------------------------------------------------------------------------##",
"##----------------------------------------------------------------------------------------------------------------------------------------------------------------------##",
"##---------------------------------------------------------------,'''')!---~'-----------{']---)^-----!'{----------------------------------------------------------------##",
"##---------------------------------------------------------------/(___:<[--}<-----------|<1---1<~----234----------------------------------------------------------------##",
"##---------------------------------------------------------------/3----5(]-}<----------6<78----98---!<1-----------------------------------------------------------------##",
"##---------------------------------------------------------------/3----4<0-}<----------ab6<~---4<[--73------------------------------------------------------------------##",
"##---------------------------------------------------------------/3----c<0-}<----------|}-bd----e(],<4------------------------------------------------------------------##",
"##---------------------------------------------------------------/3----2<]-}<---------{<4-e(----f3g|'-------------------------------------------------------------------##",
"##---------------------------------------------------------------/(eee8<d--}<---------hi--4<~----6<34-------------------------------------------------------------------##",
"##---------------------------------------------------------------/<:::_j---}<--------!<8eee('-----ke--------------------------------------------------------------------##",
"##---------------------------------------------------------------/3--------}<--------,<::::b(]----ke--------------------------------------------------------------------##",
"##---------------------------------------------------------------/3--------}<--------9'----f<1----ke--------------------------------------------------------------------##",
"##---------------------------------------------------------------/3--------}<~~~~~!-!<l-----98----ke--------------------------------------------------------------------##",
"##---------------------------------------------------------------/3--------}<<<<<<}-53------}<]---ke--------------------------------------------------------------------##",
"##----------------------------------------------------------------------------------------------------------------------------------------------------------------------##",
"##----------------------------------------------------------------------------------------------------------------------------------------------------------------------##",
"##----------------------------------------------------------------------------------------------------------------------------------------------------------------------##",
"##----------------------------------------------------------------------------------------------------------------------------------------------------------------------##",
"##----------------------------------------------------------------------------------------------------------------------------------------------------------------------##",
"##----------------------------------------------------------------------------------------------------------------------------------------------------------------------##",
"##----------------------------------------------------------------------------------------------------------------------------------------------------------------------##",
"##----------------------------------------------------------------------------------------------------------------------------------------------------------------------##",
"##----------------------------------------------------------------------------------------------------------------------------------------------------------------------##",
"##----------------------------------------------------------------------------------------------------------------------------------------------------------------------##",
"##----------------------------------------------------------------------------------------------------------------------------------------------------------------------##",
"##----------------------------------------------------------------------------------------------------------------------------------------------------------------------##",
"%#=--------------------------------------------------------------------------------------------------------------------------------------------------------------------m##",
"n#*o------------------------------------------------------------------------------------------------------------------------------------------------------------------=*#$",
"p%######################################################################################################################################################################qp",
" pr###################################################################################################################################################################qsp "};
