/* XPM */
static char * title_xpm[] = {
"200 50 39 1",
" 	c #161817",
".	c #242625",
"+	c #7C7D7D",
"@	c #A7A8A8",
"#	c #C4C5C5",
"$	c #6D6E6E",
"%	c #333534",
"&	c #B5B6B6",
"*	c #252726",
"=	c #8A8B8B",
"-	c #505151",
";	c #989999",
">	c #6D6F6E",
",	c #414342",
"'	c #5F6060",
")	c #505251",
"!	c #FFFFFF",
"~	c #F1F1F1",
"{	c #E2E2E2",
"]	c #C5C5C5",
"^	c #D3D3D3",
"/	c #424443",
"(	c #999A9A",
"_	c #A8A8A8",
":	c #999999",
"<	c #B6B7B7",
"[	c #5E605F",
"}	c #9A9A9A",
"|	c #F0F0F0",
"1	c #7B7D7C",
"2	c #8B8B8B",
"3	c #A8A9A8",
"4	c #8B8C8B",
"5	c #B6B6B6",
"6	c #333434",
"7	c #7C7D7C",
"8	c #D3D4D4",
"9	c #D4D4D4",
"0	c #8A8C8B",
"                                                                                                                                                                                                        ",
"                                                                                                                                                                                                        ",
"                                                                                                                                                                                                        ",
"                                                                                                                                                                                                        ",
"                                                                                                                                                                                                        ",
"                                                                                                                                                                                                        ",
"                                                                                                                                                                                                        ",
"                                                                                                                                                                                                        ",
"                                                                                                                                                                                                        ",
"                                                                                                                                                                                                        ",
"                                                                                                                                                                                                        ",
"                                                                                                                                                                                                        ",
"                            .+@###@$%               .$@###&+%                     *===                     .-;&##&=-            >==,             '==)           .$;&##&=,                               ",
"                          %#!!!!!!!!!=.           .=~!!!!!!!!#%                   %!!!                    =~!!!!!!!!{$          ]!!{.            @!!=         .=~!!!!!!!!^$                             ",
"                         /~!!!!!~!!!!!{%         /{!!!!!!!!!!!!=                  %!!!                  %^!!!!!!!!!!!!(         ]!!!(            @!!=        %{!!!!!!!!!!!!(                            ",
"                        %~!!{+%   )_!!!^        /~!!!]>%%%)_!!!!=                 %!!!                 %{!!!]+/%%):{!!!_        ]!!!!)           @!!=       %{!!!]+%%%)_{!!!_                           ",
"                        @!!^.       /~!!$      %{!!{)       %<!!![                %!!!                 {!!~>       *}!!!(       ]!!!!|.          @!!=       {!!~[       %_!!!1                          ",
"                       *!!!%         2!!#      @!!{%          3!!|.               %!!!                2!!~/          4!!!)      ]!!!!!5          @!!=      2!!~/          }!!!%                         ",
"                       -!!#          *{{^     -!!!%           *{!!=               %!!!               %~!!$            ]!!#      ]!!=~!!1         @!!=     %!!!$           *{!!:                         ",
"                       -!!5                   @!!_             )!!|               %!!!               >!!^             %!!!6     ]!!$7!!|%        @!!=     >!!{             >!!|                         ",
"                       ,!!|.                  ~!!%              {!!)              %!!!               ]!!$              ]!!1     ]!!$ <!!#        @!!=     ]!!$             *===.                        ",
"                        ~!!_                 -!!8               (!!:              %!!!              *!!!.              >!!5     ]!!$ *{!!1       @!!=     !!!.                                          ",
"                        7!!!{$               +!!5               >!!5              %!!!              -!!8               %!!{     ]!!$  )!!!,      @!!=    ,!!8                                           ",
"                         4!!!!{@$%           =!!=               ,!!8              %!!!              '!!5                !!!     ]!!$   }!!{.     @!!=    -!!5                                           ",
"                          >{!!!!!!^;%        @!!$               %!!{              %!!!              >!!@                {!!.    ]!!$   *{!!(     @!!=    >!!@                                           ",
"                            >]!!!!!!!@%      @!!$               %!!{              %!!!              >!!@                {!!6    ]!!$    )!!!)    @!!=    >!!@        -#########'                        ",
"                              .'_{!!!!|$     (!!1               %!!{              %!!!              >!!@                ~!!     ]!!$     }!!{.   @!!=    >!!@        >!!!!!!!!!$                        ",
"                                  /_!!!!)    +!!:               -!!#              %!!!              '!!5               *!!|     ]!!$      9!!(   @!!=    -!!#        >!!!!!!!!!$                        ",
"                                    %9!!#    >!!5               +!!:              %!!!              %!!|               -!!8     ]!!$      %~!![  @!!=    %!!|               5!!$                        ",
"                                     *~!!6   %!!|               5!!$              %!!!               ~!!6              +!!_     ]!!$       7!!|% @!!=     ~!!)              ]!!)                        ",
"                                      5!!'    {!!)             %!!!%              %!!!               @!!=              {!!'     ]!!$        ]!!# @!!=     @!!=             *!!!%                        ",
"                       @@@.           5!!'    2!!^             @!!#               %!!!               )!!|.            >!!{      ]!!$        %~!!1@!!=     )!!|%            >!!{                         ",
"                       {!!1           {!!,    *~!!=           /!!!$               %!!!                ]!!5           %{!!0      ]!!$         >!!|]!!=      ]!!#           %{!!1                         ",
"                       (!!{.         2!!{      7!!!=         /{!!_                %!!!                )!!!=         %{!!{       ]!!$          <!!!!!=      )!!!_         .^!!{%                         ",
"                       %~!!{%      .(!!!$       3!!!@%     .=!!!{%                %!!!                 4!!!{-     .=~!!~%       ]!!$          *{!!!!=       4!!!{-      -{!!!$                          ",
"                        7!!!!#=$$+@~!!!]        *]!!!!^@=;#~!!!{%                 %!!!###########5      4!!!!{&=;&~!!!~>        ]!!$           )!!!!=        4!!!!{&=;@~!!!!0                           ",
"                         7!!!!!!!!!!!!3.          4!!!!!!!!!!!]%                  %!!!!!!!!!!!!!!{       >{!!!!!!!!!!^/         ]!!$            }!!!=         7{!!!!!!!!!!~[                            ",
"                          %_~!!!!!!!])             %_{!!!!!~])                    %!!!!!!!!!!!!!!{        %4{!!!!!!]$           ]!!$            *{!!=          %:{!!!!!!{4.                             ",
"                             )'++>).                  /)>>/.                                                 %)>>/.                                               %)>>).                                ",
"                                                                                                                                                                                                        ",
"                                                                                                                                                                                                        ",
"                                                                                                                                                                                                        ",
"                                                                                                                                                                                                        ",
"                                                                                                                                                                                                        ",
"                                                                                                                                                                                                        ",
"                                                                                                                                                                                                        ",
"                                                                                                                                                                                                        ",
"                                                                                                                                                                                                        ",
"                                                                                                                                                                                                        ",
"                                                                                                                                                                                                        "};
