/* XPM */
static char * XJOSE_xpm[] = {
"151 30 44 1",
" 	c #191B1A",
".	c #262726",
"+	c #353433",
"@	c #1E201F",
"#	c #373635",
"$	c #1F201F",
"%	c #343433",
"&	c #403E3E",
"*	c #3A3938",
"=	c #292A29",
"-	c #2C2D2C",
";	c #3D3B3B",
">	c #262827",
",	c #1C1E1D",
"'	c #413E3E",
")	c #272726",
"!	c #353434",
"~	c #302F2F",
"{	c #242524",
"]	c #3B3939",
"^	c #3E3B3B",
"/	c #2D2C2C",
"(	c #1C1D1C",
"_	c #2A2A29",
":	c #212322",
"<	c #302F2E",
"[	c #3A3939",
"}	c #272827",
"|	c #323232",
"1	c #323231",
"2	c #434141",
"3	c #323131",
"4	c #2F2F2F",
"5	c #464343",
"6	c #3B3938",
"7	c #212221",
"8	c #333232",
"9	c #3D3C3C",
"0	c #2C2C2B",
"a	c #383636",
"b	c #2F2F2E",
"c	c #1B1D1C",
"d	c #434040",
"e	c #444141",
"                                                                                                                                                       ",
"                                                                                                                                                       ",
"                                                                                                                                                       ",
"                                                                                                                                                       ",
"                                                                                                                                                       ",
"                                                                                                                                                       ",
"                                                                                                                                                       ",
"                                                                                                                                                       ",
"                                                                                                                                                       ",
"                                                                                                                                                       ",
"                                                                                                                                                       ",
"                                                        .+   @#$    %@  @%&*=    -*;+@  %****>                                                         ",
"                                                        ,')  +!     &@ @&~@{]!  =^{@/&( &_{{{(                                                         ",
"                                                         {&(:'$     &@ +<   ,'{ [}   -( &@                                                             ",
"                                                          |1&_      &@ 2$    13 4^@     &@                                                             ",
"                                                          ,56       &@,5     _+  _'&+@  &&&&&                                                          ",
"                                                          -'27      &@ 5(    -3    $8&( &{@@@                                                          ",
"                                                         @2$/6      &@ ]{    [_ {(   9} &@                                                             ",
"                                                         +<  ]0 ab @5( {&@ c4'  ]b  @&$ &@                                                             ",
"                                                        ='   :d@:'&'/   _'&2]$  $'&;e/  &5555=                                                         ",
"                                                                  @(      @(      (@                                                                   ",
"                                                                                                                                                       ",
"                                                                                                                                                       ",
"                                                                                                                                                       ",
"                                                                                                                                                       ",
"                                                                                                                                                       ",
"                                                                                                                                                       ",
"                                                                                                                                                       ",
"                                                                                                                                                       ",
"                                                                                                                                                       "};
